# Blender 4.1.1
# www.blender.org
mtllib CoffeeTin.mtl
o Cylinder.040
v -56.609119 -1.340412 -1.449766
v -56.609119 1.340412 -1.463621
v -56.326283 -1.340412 -1.421909
v -56.323582 1.340412 -1.435498
v -56.054317 -1.340412 -1.339409
v -56.049015 1.340412 -1.352209
v -55.803673 -1.340412 -1.205436
v -55.795975 1.340412 -1.216956
v -55.583981 -1.340412 -1.025139
v -55.574184 1.340412 -1.034936
v -55.403683 -1.340412 -0.805447
v -55.392162 1.340412 -0.813144
v -55.269711 -1.340412 -0.554801
v -55.256908 1.340412 -0.560103
v -55.187210 -1.340412 -0.282835
v -55.173622 1.340412 -0.285538
v -55.159355 -1.340412 0.000000
v -55.145500 1.340412 0.000000
v -55.187210 -1.340412 0.282835
v -55.173622 1.340412 0.285538
v -55.269711 -1.340412 0.554801
v -55.256908 1.340412 0.560103
v -55.403683 -1.340412 0.805447
v -55.392162 1.340412 0.813144
v -55.583981 -1.340412 1.025139
v -55.574184 1.340412 1.034936
v -55.803673 -1.340412 1.205436
v -55.795975 1.340412 1.216956
v -56.054317 -1.340412 1.339409
v -56.049015 1.340412 1.352209
v -56.326283 -1.340412 1.421909
v -56.323582 1.340412 1.435498
v -56.609119 -1.340412 1.449766
v -56.609119 1.340412 1.463621
v -56.891956 -1.340412 1.421909
v -56.894657 1.340412 1.435498
v -57.163921 -1.340412 1.339409
v -57.169224 1.340412 1.352209
v -57.414566 -1.340412 1.205436
v -57.422264 1.340412 1.216956
v -57.634258 -1.340412 1.025139
v -57.644054 1.340412 1.034936
v -57.814556 -1.340412 0.805447
v -57.826077 1.340412 0.813144
v -57.948528 -1.340412 0.554801
v -57.961330 1.340412 0.560103
v -58.031029 -1.340412 0.282835
v -58.044617 1.340412 0.285538
v -58.058884 -1.340412 0.000000
v -58.072739 1.340412 0.000000
v -58.031029 -1.340412 -0.282835
v -58.044617 1.340412 -0.285538
v -57.948528 -1.340412 -0.554801
v -57.961330 1.340412 -0.560103
v -57.814556 -1.340412 -0.805447
v -57.826077 1.340412 -0.813144
v -57.634258 -1.340412 -1.025139
v -57.644054 1.340412 -1.034936
v -57.414566 -1.340412 -1.205436
v -57.422264 1.340412 -1.216956
v -57.163921 -1.340412 -1.339409
v -57.169224 1.340412 -1.352209
v -56.891956 -1.340412 -1.421909
v -56.894657 1.340412 -1.435498
v -56.609119 -1.383421 -1.521770
v -56.289589 -1.416242 -1.447719
v -56.008789 -1.416149 -1.355699
v -55.759892 -1.416242 -1.215239
v -55.561169 -1.416708 -1.047948
v -55.359486 -1.416242 -0.797750
v -55.239910 -1.416708 -0.567145
v -55.126881 -1.416295 0.035829
v -55.162350 -1.416295 0.324311
v -55.253422 -1.416149 0.600330
v -55.393879 -1.416242 0.849226
v -55.561172 -1.416708 1.047949
v -55.811371 -1.416242 1.249635
v -56.041973 -1.416708 1.369211
v -56.355087 -1.416149 1.460748
v -56.609612 -1.416300 1.484019
v -56.933430 -1.416295 1.446769
v -57.209450 -1.416149 1.355699
v -57.458347 -1.416242 1.215239
v -57.657070 -1.416708 1.047948
v -57.858753 -1.416242 0.797750
v -57.990376 -1.416242 0.538629
v -58.062664 -1.416708 0.289129
v -58.055889 -1.416149 -0.324311
v -57.964817 -1.416149 -0.600330
v -57.824360 -1.416242 -0.849226
v -57.657066 -1.416708 -1.047949
v -57.406868 -1.416242 -1.249635
v -57.147747 -1.416242 -1.381257
v -56.863152 -1.416149 -1.460748
v -56.609119 -1.383421 -1.449766
v -56.609119 -1.416295 -1.483995
v -56.355087 -1.416149 -1.460748
v -56.326283 -1.383421 -1.421909
v -56.079494 -1.416242 -1.384987
v -56.054317 -1.383421 -1.339409
v -55.815422 -1.416295 -1.252342
v -55.803673 -1.383421 -1.205436
v -55.558079 -1.416695 -1.051042
v -55.583981 -1.383421 -1.025139
v -55.393883 -1.416242 -0.849227
v -55.403683 -1.383421 -0.805447
v -55.235867 -1.416695 -0.568820
v -55.269711 -1.383421 -0.554801
v -55.153713 -1.416300 -0.290001
v -55.187210 -1.383421 -0.282835
v -55.126881 -1.416149 -0.035829
v -55.159355 -1.383421 0.000000
v -55.148373 -1.416149 0.254031
v -55.187210 -1.383421 0.282835
v -55.225998 -1.416149 0.534126
v -55.269711 -1.383421 0.554801
v -55.356777 -1.416295 0.793698
v -55.403683 -1.383421 0.805447
v -55.558079 -1.416695 1.051041
v -55.583981 -1.383421 1.025139
v -55.759892 -1.416242 1.215238
v -55.803673 -1.383421 1.205436
v -56.040298 -1.416695 1.373252
v -56.054317 -1.383421 1.339409
v -56.289589 -1.416242 1.447719
v -56.326283 -1.383421 1.421909
v -56.609119 -1.383421 1.449766
v -56.858372 -1.416242 1.461699
v -56.891956 -1.383421 1.421909
v -57.143246 -1.416149 1.383122
v -57.163921 -1.383421 1.339409
v -57.402817 -1.416295 1.252342
v -57.414566 -1.383421 1.205436
v -57.660160 -1.416695 1.051042
v -57.634258 -1.383421 1.025139
v -57.824356 -1.416242 0.849227
v -57.814556 -1.383421 0.805447
v -57.962952 -1.416242 0.604833
v -57.948528 -1.383421 0.554801
v -58.066956 -1.416695 0.289982
v -58.031029 -1.383421 0.282835
v -58.093140 -1.416300 0.000493
v -58.058884 -1.383421 0.000000
v -58.069866 -1.416149 -0.254031
v -58.031029 -1.383421 -0.282835
v -57.992241 -1.416295 -0.534126
v -57.948528 -1.383421 -0.554801
v -57.861462 -1.416295 -0.793698
v -57.814556 -1.383421 -0.805447
v -57.660160 -1.416695 -1.051041
v -57.634258 -1.383421 -1.025139
v -57.458347 -1.416242 -1.215238
v -57.414566 -1.383421 -1.205436
v -57.213951 -1.416242 -1.353834
v -57.163921 -1.383421 -1.339409
v -56.938210 -1.416242 -1.445818
v -56.891956 -1.383421 -1.421909
v -56.307625 1.340412 -1.515723
v -56.017715 1.340412 -1.427780
v -55.750530 1.340412 -1.284968
v -55.516342 1.340412 -1.092775
v -55.324150 1.340412 -0.858588
v -55.181339 1.340412 -0.591406
v -55.093395 1.340412 -0.301496
v -55.093395 1.340412 0.301496
v -55.181339 1.340412 0.591406
v -55.324150 1.340412 0.858588
v -55.516346 1.340412 1.092776
v -55.750530 1.340412 1.284968
v -56.017715 1.340412 1.427780
v -56.307625 1.340412 1.515723
v -56.609119 1.340412 1.545418
v -57.200523 1.340412 1.427780
v -57.467709 1.340412 1.284968
v -57.701897 1.340412 1.092775
v -57.894089 1.340412 0.858588
v -58.036900 1.340412 0.591406
v -58.124844 1.340412 0.301496
v -58.154537 1.340412 -0.000000
v -58.036900 1.340412 -0.591406
v -57.894089 1.340412 -0.858588
v -57.701893 1.340412 -1.092776
v -57.467709 1.340412 -1.284968
v -57.200523 1.340412 -1.427780
v -56.910614 1.340412 -1.515723
v -56.323582 1.296403 -1.435498
v -56.609119 1.296403 -1.463621
v -56.049015 1.296403 -1.352209
v -55.795975 1.296403 -1.216956
v -55.574184 1.296403 -1.034936
v -55.392162 1.296403 -0.813144
v -55.256908 1.296403 -0.560103
v -55.173622 1.296403 -0.285538
v -55.145500 1.296403 0.000000
v -55.173622 1.296403 0.285538
v -55.256908 1.296403 0.560103
v -55.392162 1.296403 0.813144
v -55.574184 1.296403 1.034936
v -55.795975 1.296403 1.216956
v -56.049015 1.296403 1.352209
v -56.323582 1.296403 1.435498
v -56.609119 1.296403 1.463621
v -56.894657 1.296403 1.435498
v -57.169224 1.296403 1.352209
v -57.422264 1.296403 1.216956
v -57.644054 1.296403 1.034936
v -57.826077 1.296403 0.813144
v -57.961330 1.296403 0.560103
v -58.044617 1.296403 0.285538
v -58.072739 1.296403 0.000000
v -58.044617 1.296403 -0.285538
v -57.961330 1.296403 -0.560103
v -57.826077 1.296403 -0.813144
v -57.644054 1.296403 -1.034936
v -57.422264 1.296403 -1.216956
v -57.169224 1.296403 -1.352209
v -56.894657 1.296403 -1.435498
v -56.344524 1.296403 -1.330207
v -56.609119 1.296403 -1.356267
v -56.090099 1.296403 -1.253027
v -55.855618 1.296403 -1.127695
v -55.650093 1.296403 -0.959026
v -55.481426 1.296403 -0.753502
v -55.356091 1.296403 -0.519021
v -55.278912 1.296403 -0.264595
v -55.252853 1.296403 0.000000
v -55.278912 1.296403 0.264595
v -55.356091 1.296403 0.519021
v -55.481426 1.296403 0.753502
v -55.650093 1.296403 0.959026
v -55.855618 1.296403 1.127695
v -56.090099 1.296403 1.253027
v -56.344524 1.296403 1.330207
v -56.609119 1.296403 1.356267
v -56.873714 1.296403 1.330207
v -57.128139 1.296403 1.253027
v -57.362621 1.296403 1.127695
v -57.568146 1.296403 0.959026
v -57.736813 1.296403 0.753502
v -57.862148 1.296403 0.519021
v -57.939327 1.296403 0.264595
v -57.965385 1.296403 0.000000
v -57.939327 1.296403 -0.264595
v -57.862148 1.296403 -0.519021
v -57.736813 1.296403 -0.753502
v -57.568146 1.296403 -0.959026
v -57.362621 1.296403 -1.127695
v -57.128139 1.296403 -1.253027
v -56.873714 1.296403 -1.330207
v -56.606079 1.162076 -1.357166
v -56.092564 1.162076 1.255021
v -57.736839 1.162076 -0.755348
v -56.341366 1.162076 -1.330495
v -56.086945 1.162076 -1.252694
v -55.852589 1.162076 -1.126752
v -55.647308 1.162076 -0.957511
v -55.479958 1.162076 -0.752653
v -55.354542 1.162076 -0.518017
v -55.277439 1.162076 -0.261788
v -55.251953 1.162076 0.003041
v -55.278625 1.162076 0.267752
v -55.356426 1.162076 0.522174
v -55.482368 1.162076 0.756529
v -55.651608 1.162076 0.961811
v -55.857647 1.162076 1.130131
v -56.347332 1.162076 1.331681
v -56.612160 1.162076 1.357166
v -56.876873 1.162076 1.330495
v -57.131294 1.162076 1.252694
v -57.365650 1.162076 1.126752
v -57.570930 1.162076 0.957511
v -57.739250 1.162076 0.751473
v -57.864140 1.162076 0.516556
v -57.940800 1.162076 0.261788
v -57.966286 1.162076 -0.003041
v -57.939613 1.162076 -0.267752
v -57.862255 1.162076 -0.520712
v -57.566631 1.162076 -0.961811
v -57.360592 1.162076 -1.130131
v -57.125675 1.162076 -1.255021
v -56.870907 1.162076 -1.331681
v -56.344173 -0.970789 -1.331969
v -56.609119 -0.970789 -1.358064
v -56.089409 -0.970789 -1.254688
v -55.854618 -0.970789 -1.129189
v -55.648823 -0.970789 -0.960296
v -55.479931 -0.970789 -0.754500
v -55.354431 -0.970789 -0.519709
v -55.277149 -0.970789 -0.264945
v -55.251057 -0.970789 0.000000
v -55.277149 -0.970789 0.264945
v -55.354431 -0.970789 0.519709
v -55.479931 -0.970789 0.754500
v -55.648823 -0.970789 0.960296
v -55.854618 -0.970789 1.129189
v -56.089409 -0.970789 1.254688
v -56.344173 -0.970789 1.331969
v -56.609119 -0.970789 1.358064
v -56.874065 -0.970789 1.331969
v -57.128826 -0.970789 1.254688
v -57.363621 -0.970789 1.129189
v -57.569416 -0.970789 0.960296
v -57.738308 -0.970789 0.754500
v -57.863808 -0.970789 0.519709
v -57.941090 -0.970789 0.264945
v -57.967182 -0.970789 0.000000
v -57.941090 -0.970789 -0.264945
v -57.863808 -0.970789 -0.519709
v -57.738308 -0.970789 -0.754500
v -57.569416 -0.970789 -0.960296
v -57.363621 -0.970789 -1.129189
v -57.128826 -0.970789 -1.254688
v -56.874065 -0.970789 -1.331969
v -56.312237 -1.383421 -1.492530
v -56.026764 -1.383421 -1.405932
v -55.763668 -1.383421 -1.265306
v -55.533066 -1.383421 -1.076054
v -55.343815 -1.383421 -0.845450
v -55.203186 -1.383421 -0.582356
v -55.116589 -1.383421 -0.296882
v -55.087349 -1.383421 0.000000
v -55.116589 -1.383421 0.296883
v -55.203186 -1.383421 0.582357
v -55.343815 -1.383421 0.845450
v -55.533066 -1.383421 1.076054
v -55.763668 -1.383421 1.265306
v -56.026764 -1.383421 1.405932
v -56.312237 -1.383421 1.492530
v -56.609119 -1.383421 1.521770
v -56.906002 -1.383421 1.492530
v -57.191475 -1.383421 1.405932
v -57.454571 -1.383421 1.265306
v -57.685173 -1.383421 1.076054
v -57.874424 -1.383421 0.845450
v -58.015053 -1.383421 0.582356
v -58.101650 -1.383421 0.296883
v -58.130890 -1.383421 -0.000000
v -58.101650 -1.383421 -0.296882
v -58.015053 -1.383421 -0.582357
v -57.874424 -1.383421 -0.845450
v -57.685173 -1.383421 -1.076054
v -57.454571 -1.383421 -1.265306
v -57.191475 -1.383421 -1.405932
v -56.906002 -1.383421 -1.492530
v -56.609119 1.287755 -1.521770
v -56.312237 1.287755 -1.492530
v -56.026764 1.287755 -1.405932
v -55.763668 1.287755 -1.265306
v -55.533066 1.287755 -1.076054
v -55.343815 1.287755 -0.845450
v -55.203186 1.287755 -0.582356
v -55.116589 1.287755 -0.296883
v -55.087349 1.287755 0.000000
v -55.116589 1.287755 0.296883
v -55.203186 1.287755 0.582356
v -55.343815 1.287755 0.845450
v -55.533066 1.287755 1.076054
v -55.763668 1.287755 1.265306
v -56.026764 1.287755 1.405932
v -56.312237 1.287755 1.492530
v -56.609119 1.287755 1.521770
v -56.906002 1.287755 1.492530
v -57.191475 1.287755 1.405932
v -57.454571 1.287755 1.265306
v -57.685173 1.287755 1.076054
v -57.874424 1.287755 0.845450
v -58.015053 1.287755 0.582356
v -58.101650 1.287755 0.296883
v -58.130890 1.287755 0.000000
v -58.101650 1.287755 -0.296883
v -58.015053 1.287755 -0.582356
v -57.874424 1.287755 -0.845450
v -57.685173 1.287755 -1.076054
v -57.454571 1.287755 -1.265306
v -57.191475 1.287755 -1.405932
v -56.906002 1.287755 -1.492530
v -56.609119 1.340412 -1.545418
v -56.609119 1.287755 -1.545418
v -55.063702 1.340412 0.000000
v -56.910614 1.340412 1.515723
v -58.124844 1.340412 -0.301496
v -56.307625 1.287755 -1.515723
v -56.017715 1.287755 -1.427780
v -55.750530 1.287755 -1.284968
v -55.516342 1.287755 -1.092775
v -55.324150 1.287755 -0.858588
v -55.181339 1.287755 -0.591406
v -55.093395 1.287755 -0.301496
v -55.063702 1.287755 0.000000
v -55.093395 1.287755 0.301496
v -55.181339 1.287755 0.591406
v -55.324150 1.287755 0.858588
v -55.516342 1.287755 1.092775
v -55.750530 1.287755 1.284968
v -56.017715 1.287755 1.427780
v -56.307625 1.287755 1.515723
v -56.609119 1.287755 1.545418
v -56.910614 1.287755 1.515723
v -57.200523 1.287755 1.427780
v -57.467709 1.287755 1.284968
v -57.701897 1.287755 1.092775
v -57.894089 1.287755 0.858588
v -58.036900 1.287755 0.591406
v -58.124844 1.287755 0.301496
v -58.154537 1.287755 0.000000
v -58.124844 1.287755 -0.301496
v -58.036900 1.287755 -0.591406
v -57.894089 1.287755 -0.858588
v -57.701897 1.287755 -1.092775
v -57.467709 1.287755 -1.284968
v -57.200523 1.287755 -1.427780
v -56.910614 1.287755 -1.515723
v -56.297226 1.378309 -1.567987
v -56.609119 1.378309 -1.598706
v -55.997322 1.378309 -1.477012
v -55.720924 1.378309 -1.329275
v -55.478664 1.378309 -1.130456
v -55.279842 1.378309 -0.888193
v -55.132107 1.378309 -0.611798
v -55.041134 1.378309 -0.311892
v -55.010414 1.378309 0.000000
v -55.041134 1.378309 0.311892
v -55.132107 1.378309 0.611798
v -55.279842 1.378309 0.888193
v -55.478664 1.378309 1.130456
v -55.720924 1.378309 1.329275
v -55.997322 1.378309 1.477012
v -56.297226 1.378309 1.567987
v -56.609119 1.378309 1.598706
v -56.921013 1.378309 1.567987
v -57.220917 1.378309 1.477012
v -57.497314 1.378309 1.329275
v -57.739574 1.378309 1.130456
v -57.938396 1.378309 0.888193
v -58.086132 1.378309 0.611798
v -58.177105 1.378309 0.311892
v -58.207825 1.378309 0.000000
v -58.177105 1.378309 -0.311892
v -58.086132 1.378309 -0.611798
v -57.938396 1.378309 -0.888193
v -57.739574 1.378309 -1.130456
v -57.497314 1.378309 -1.329275
v -57.220917 1.378309 -1.477012
v -56.921013 1.378309 -1.567987
v -56.306442 1.405375 1.521661
v -56.317581 1.405375 1.465670
v -56.015396 1.405375 1.433373
v -56.037243 1.405375 1.380631
v -55.747169 1.405375 1.290002
v -55.778885 1.405375 1.242535
v -55.512062 1.405375 1.097056
v -55.552429 1.405375 1.056689
v -55.319118 1.405375 0.861951
v -55.366585 1.405375 0.830236
v -55.175747 1.405375 0.593723
v -55.228489 1.405375 0.571876
v -55.087460 1.405375 0.302677
v -55.143448 1.405375 0.291540
v -55.057648 1.405375 0.000000
v -55.114735 1.405375 0.000000
v -55.087460 1.405375 -0.302677
v -55.143448 1.405375 -0.291540
v -55.175747 1.405375 -0.593723
v -55.228489 1.405375 -0.571876
v -55.319118 1.405375 -0.861951
v -55.366585 1.405375 -0.830236
v -55.512062 1.405375 -1.097056
v -55.552429 1.405375 -1.056689
v -55.747169 1.405375 -1.290002
v -55.778885 1.405375 -1.242535
v -56.015396 1.405375 -1.433373
v -56.037243 1.405375 -1.380631
v -56.609119 1.405375 -1.494384
v -56.609119 1.405375 -1.551471
v -56.306442 1.405375 -1.521661
v -56.317581 1.405375 -1.465670
v -56.297226 1.285656 -1.567987
v -56.609119 1.285656 -1.598706
v -55.997322 1.285656 -1.477012
v -55.720924 1.285656 -1.329275
v -55.478664 1.285656 -1.130456
v -55.279842 1.285656 -0.888193
v -55.132107 1.285656 -0.611798
v -55.041134 1.285656 -0.311892
v -55.010414 1.285656 0.000000
v -55.041134 1.285656 0.311892
v -55.132107 1.285656 0.611798
v -55.279842 1.285656 0.888193
v -55.478664 1.285656 1.130456
v -55.720924 1.285656 1.329275
v -55.997322 1.285656 1.477012
v -56.297226 1.285656 1.567987
v -56.609119 1.285656 1.598706
v -56.921013 1.285656 1.567987
v -57.220917 1.285656 1.477012
v -57.497314 1.285656 1.329275
v -57.739574 1.285656 1.130456
v -57.938396 1.285656 0.888193
v -58.086132 1.285656 0.611798
v -58.177105 1.285656 0.311892
v -58.207825 1.285656 0.000000
v -58.177105 1.285656 -0.311892
v -58.086132 1.285656 -0.611798
v -57.938396 1.285656 -0.888193
v -57.739574 1.285656 -1.130456
v -57.497314 1.285656 -1.329275
v -57.220917 1.285656 -1.477012
v -56.921013 1.285656 -1.567987
v -56.317581 1.378309 -1.465670
v -56.306442 1.378309 -1.521661
v -56.609119 1.378309 -1.551471
v -56.609119 1.378309 -1.494384
v -56.037243 1.378309 -1.380631
v -56.015396 1.378309 -1.433373
v -55.778885 1.378309 -1.242535
v -55.747169 1.378309 -1.290002
v -55.552429 1.378309 -1.056689
v -55.512062 1.378309 -1.097056
v -55.366585 1.378309 -0.830236
v -55.319118 1.378309 -0.861951
v -55.228489 1.378309 -0.571876
v -55.175747 1.378309 -0.593723
v -55.143448 1.378309 -0.291540
v -55.087460 1.378309 -0.302677
v -55.114735 1.378309 0.000000
v -55.057648 1.378309 0.000000
v -55.143448 1.378309 0.291540
v -55.087460 1.378309 0.302677
v -55.228489 1.378309 0.571876
v -55.175747 1.378309 0.593723
v -55.366585 1.378309 0.830236
v -55.319118 1.378309 0.861951
v -55.552429 1.378309 1.056689
v -55.512062 1.378309 1.097056
v -55.778885 1.378309 1.242535
v -55.747169 1.378309 1.290002
v -56.037243 1.378309 1.380631
v -56.015396 1.378309 1.433373
v -56.317581 1.378309 1.465670
v -56.306442 1.378309 1.521661
v -56.609119 1.378309 1.494384
v -56.609119 1.378309 1.551471
v -56.900658 1.378309 1.465670
v -56.911797 1.378309 1.521661
v -57.180996 1.378309 1.380631
v -57.202843 1.378309 1.433373
v -57.439354 1.378309 1.242535
v -57.471069 1.378309 1.290002
v -57.665810 1.378309 1.056689
v -57.706177 1.378309 1.097056
v -57.851654 1.378309 0.830236
v -57.899120 1.378309 0.861951
v -57.989750 1.378309 0.571876
v -58.042492 1.378309 0.593723
v -58.074791 1.378309 0.291540
v -58.130779 1.378309 0.302677
v -58.103504 1.378309 0.000000
v -58.160591 1.378309 0.000000
v -58.074791 1.378309 -0.291540
v -58.130779 1.378309 -0.302677
v -57.989750 1.378309 -0.571876
v -58.042492 1.378309 -0.593723
v -57.851654 1.378309 -0.830236
v -57.899120 1.378309 -0.861951
v -57.665810 1.378309 -1.056689
v -57.706177 1.378309 -1.097056
v -57.439354 1.378309 -1.242535
v -57.471069 1.378309 -1.290002
v -57.180996 1.378309 -1.380631
v -57.202843 1.378309 -1.433373
v -56.900658 1.378309 -1.465670
v -56.911797 1.378309 -1.521661
v -56.609119 1.405375 1.494384
v -56.609119 1.405375 1.551471
v -56.900658 1.405375 1.465670
v -56.911797 1.405375 1.521661
v -57.180996 1.405375 1.380631
v -57.202843 1.405375 1.433373
v -57.439354 1.405375 1.242535
v -57.471069 1.405375 1.290002
v -57.665810 1.405375 1.056689
v -57.706177 1.405375 1.097056
v -57.851654 1.405375 0.830236
v -57.899120 1.405375 0.861951
v -57.989750 1.405375 0.571876
v -58.042492 1.405375 0.593723
v -58.074791 1.405375 0.291540
v -58.130779 1.405375 0.302677
v -58.103504 1.405375 0.000000
v -58.160591 1.405375 0.000000
v -58.074791 1.405375 -0.291540
v -58.130779 1.405375 -0.302677
v -57.989750 1.405375 -0.571876
v -58.042492 1.405375 -0.593723
v -57.851654 1.405375 -0.830236
v -57.899120 1.405375 -0.861951
v -57.665810 1.405375 -1.056689
v -57.706177 1.405375 -1.097056
v -57.439354 1.405375 -1.242535
v -57.471069 1.405375 -1.290002
v -57.180996 1.405375 -1.380631
v -57.202843 1.405375 -1.433373
v -56.900658 1.405375 -1.465670
v -56.911797 1.405375 -1.521661
v -56.609119 -1.043564 -1.536988
v -56.309269 -1.043564 -1.507455
v -56.020939 -1.043564 -1.419992
v -55.755215 -1.043564 -1.277959
v -55.522305 -1.043564 -1.086815
v -55.331161 -1.043564 -0.853905
v -55.189129 -1.043564 -0.588180
v -55.101665 -1.043564 -0.299852
v -55.072132 -1.043564 -0.000000
v -55.101665 -1.043564 0.299851
v -55.189129 -1.043564 0.588180
v -55.331161 -1.043564 0.853905
v -55.522305 -1.043564 1.086815
v -55.755215 -1.043564 1.277959
v -56.020939 -1.043564 1.419992
v -56.309269 -1.043564 1.507455
v -56.609119 -1.043564 1.536988
v -56.908970 -1.043564 1.507455
v -57.197300 -1.043564 1.419992
v -57.463024 -1.043564 1.277959
v -57.695934 -1.043564 1.086815
v -57.887077 -1.043564 0.853905
v -58.029110 -1.043564 0.588180
v -58.116573 -1.043564 0.299851
v -58.146107 -1.043564 -0.000000
v -58.116573 -1.043564 -0.299852
v -58.029110 -1.043564 -0.588180
v -57.887077 -1.043564 -0.853905
v -57.695934 -1.043564 -1.086815
v -57.463024 -1.043564 -1.277959
v -57.197300 -1.043564 -1.419992
v -56.908970 -1.043564 -1.507455
v -56.309269 1.043564 -1.507455
v -56.609119 1.043564 -1.536988
v -56.020939 1.043564 -1.419992
v -55.755215 1.043564 -1.277959
v -55.522305 1.043564 -1.086815
v -55.331161 1.043564 -0.853905
v -55.189129 1.043564 -0.588180
v -55.101665 1.043564 -0.299852
v -55.072132 1.043564 -0.000000
v -55.101665 1.043564 0.299851
v -55.189129 1.043564 0.588180
v -55.331161 1.043564 0.853905
v -55.522305 1.043564 1.086815
v -55.755215 1.043564 1.277959
v -56.020939 1.043564 1.419992
v -56.309269 1.043564 1.507455
v -56.609119 1.043564 1.536988
v -56.908970 1.043564 1.507455
v -57.197300 1.043564 1.419992
v -57.463024 1.043564 1.277959
v -57.695934 1.043564 1.086815
v -57.887077 1.043564 0.853905
v -58.029110 1.043564 0.588180
v -58.116573 1.043564 0.299851
v -58.146107 1.043564 -0.000000
v -58.116573 1.043564 -0.299852
v -58.029110 1.043564 -0.588180
v -57.887077 1.043564 -0.853905
v -57.695934 1.043564 -1.086815
v -57.463024 1.043564 -1.277959
v -57.197300 1.043564 -1.419992
v -56.908970 1.043564 -1.507455
vn -0.6446 0.4112 -0.6445
vn 0.0005 -1.0000 0.0022
vn 0.6364 0.4358 0.6364
vn 0.6446 0.4112 -0.6445
vn -0.0022 -1.0000 0.0005
vn -0.6364 0.4358 0.6364
vn 0.6446 0.4112 0.6445
vn -0.0005 -1.0000 -0.0022
vn -0.6364 0.4358 -0.6364
vn -0.6446 0.4112 0.6445
vn 0.0022 -1.0000 -0.0005
vn 0.6364 0.4358 -0.6364
vn -0.3488 0.4112 -0.8421
vn -0.0002 -1.0000 0.0021
vn 0.3444 0.4358 0.8315
vn -0.0020 -1.0000 -0.0006
vn -0.8830 0.4364 0.1729
vn 0.8945 0.4107 -0.1763
vn -0.8429 0.4108 0.3475
vn 0.0021 -1.0000 0.0002
vn 0.8323 0.4364 -0.3418
vn -0.0004 -1.0000 -0.0067
vn 0.1773 -0.4180 -0.8910
vn 0.0002 -1.0000 0.0004
vn 0.0032 -0.9999 -0.0112
vn 0.3486 -0.4172 -0.8393
vn 0.0040 -1.0000 -0.0053
vn 0.5054 -0.4177 -0.7550
vn 0.0023 -1.0000 -0.0063
vn 0.7552 -0.4184 -0.5046
vn 0.0006 -1.0000 -0.0020
vn 0.0065 -1.0000 -0.0019
vn 0.9087 -0.4175 -0.0002
vn 0.0065 -1.0000 0.0012
vn 0.0067 -1.0000 -0.0006
vn 0.8913 -0.4175 0.1770
vn 0.0062 -1.0000 0.0024
vn 0.0065 -1.0000 0.0013
vn 0.8393 -0.4180 0.3476
vn 0.0055 -1.0000 0.0037
vn 0.0063 -1.0000 0.0023
vn 0.7550 -0.4177 0.5054
vn 0.5046 -0.4184 0.7552
vn 0.0020 -1.0000 0.0006
vn 0.1777 -0.4182 0.8908
vn -0.0004 -1.0000 0.0067
vn 0.0012 -1.0000 0.0014
vn -0.0004 -0.9999 0.0117
vn -0.1780 -0.4167 0.8915
vn -0.0028 -1.0000 0.0061
vn -0.0013 -1.0000 0.0065
vn -0.3476 -0.4180 0.8393
vn -0.0037 -1.0000 0.0055
vn -0.0023 -1.0000 0.0063
vn -0.5054 -0.4177 0.7550
vn -0.7550 -0.4182 0.5050
vn -0.0001 -1.0000 -0.0008
vn -0.0006 -1.0000 0.0020
vn -0.8401 -0.4174 0.3465
vn -0.0100 -0.9999 0.0060
vn -0.0066 -1.0000 -0.0000
vn -0.8910 -0.4180 -0.1772
vn -0.0061 -1.0000 -0.0025
vn -0.0065 -1.0000 -0.0014
vn -0.8394 -0.4175 -0.3480
vn -0.0052 -1.0000 -0.0042
vn -0.0063 -1.0000 -0.0023
vn -0.7550 -0.4177 -0.5054
vn -0.5050 -0.4182 -0.7550
vn 0.0008 -1.0000 -0.0001
vn -0.3469 -0.4172 -0.8400
vn 0.0008 -1.0000 -0.0000
vn -0.0060 -0.9999 -0.0100
vn -0.1765 -0.4172 -0.8915
vn 0.0003 -1.0000 -0.0067
vn -0.0036 -0.9999 -0.0110
vn -0.1353 -0.7255 0.6748
vn -0.2638 -0.7268 0.6342
vn -0.3841 -0.7246 0.5723
vn -0.5735 -0.7240 0.3832
vn -0.6879 -0.7258 -0.0005
vn -0.6746 -0.7258 -0.1347
vn -0.6348 -0.7266 -0.2629
vn -0.5723 -0.7246 -0.3841
vn -0.3832 -0.7240 -0.5735
vn -0.1362 -0.7253 -0.6749
vn 0.1356 -0.7260 -0.6742
vn 0.2629 -0.7266 -0.6348
vn 0.3841 -0.7246 -0.5723
vn 0.5729 -0.7243 -0.3838
vn 0.6370 -0.7255 -0.2607
vn -0.0000 -1.0000 -0.0000
vn 0.6739 -0.7266 0.1340
vn 0.6357 -0.7258 0.2628
vn 0.5723 -0.7246 0.3841
vn 0.3838 -0.7243 0.5729
vn 0.2614 -0.7257 0.6364
vn 0.1330 -0.7268 0.6739
vn -0.0000 -0.0000 1.0000
vn 0.1951 -0.0000 0.9808
vn 0.5556 -0.0000 -0.8315
vn 0.3827 -0.0000 -0.9239
vn 0.1951 -0.0000 -0.9808
vn -0.0000 -0.0000 -1.0000
vn -0.1951 -0.0000 -0.9808
vn -0.3827 -0.0000 -0.9239
vn -0.5556 -0.0000 -0.8315
vn -0.7071 -0.0000 -0.7071
vn -0.8315 -0.0000 -0.5556
vn -0.9239 -0.0000 -0.3827
vn -0.9808 -0.0000 -0.1951
vn -1.0000 -0.0000 -0.0000
vn -0.9808 -0.0000 0.1951
vn -0.9239 -0.0000 0.3827
vn -0.3827 -0.0000 0.9239
vn -0.1951 -0.0000 0.9808
vn -0.8315 -0.0000 0.5556
vn 0.7071 -0.0000 -0.7071
vn 0.8315 -0.0000 -0.5556
vn 0.9239 -0.0000 -0.3827
vn 0.9808 -0.0000 -0.1951
vn 1.0000 -0.0000 -0.0000
vn 0.9808 -0.0000 0.1951
vn 0.9239 -0.0000 0.3827
vn 0.8315 -0.0000 0.5556
vn 0.7071 -0.0000 0.7071
vn 0.5556 -0.0000 0.8315
vn -0.0168 -0.9999 0.0002
vn -0.5556 -0.0000 0.8315
vn 0.3827 -0.0000 0.9239
vn 0.0165 -0.9999 -0.0035
vn -0.7071 -0.0000 0.7071
vn -0.0000 -0.4183 -0.9083
vn 0.6395 -0.4266 -0.6395
vn 0.8357 -0.4271 -0.3453
vn 0.8905 -0.4188 -0.1779
vn 0.6395 -0.4266 0.6395
vn 0.3461 -0.4266 0.8356
vn 0.0005 -0.4179 0.9085
vn 0.0002 -0.9999 0.0151
vn -0.6395 -0.4266 0.6395
vn -0.8870 -0.4271 0.1757
vn -0.9081 -0.4188 0.0008
vn -0.6395 -0.4266 -0.6395
vn -0.0000 -0.9999 -0.0151
vn -0.0000 -0.7236 0.6902
vn -0.4760 -0.7395 0.4760
vn -0.6230 -0.7389 0.2566
vn -0.6776 -0.7226 0.1368
vn -0.4760 -0.7395 -0.4760
vn -0.2576 -0.7395 -0.6219
vn -0.0008 -0.7240 -0.6898
vn 0.4760 -0.7395 -0.4760
vn 0.6611 -0.7389 -0.1302
vn 0.6912 -0.7226 -0.0020
vn 0.4760 -0.7395 0.4760
vn -0.0000 1.0000 -0.0000
vn 0.1332 0.7304 -0.6699
vn -0.0000 0.7305 -0.6830
vn 0.2614 0.7304 -0.6310
vn 0.3794 0.7304 -0.5679
vn 0.4829 0.7304 -0.4829
vn 0.5679 0.7304 -0.3794
vn 0.6310 0.7304 -0.2614
vn 0.6699 0.7304 -0.1332
vn 0.6830 0.7304 -0.0000
vn 0.6699 0.7304 0.1332
vn 0.6310 0.7304 0.2614
vn 0.5679 0.7304 0.3794
vn 0.4829 0.7304 0.4829
vn 0.3794 0.7304 0.5679
vn 0.2614 0.7304 0.6310
vn 0.1332 0.7304 0.6699
vn -0.0000 0.7305 0.6830
vn -0.1332 0.7304 0.6699
vn -0.2614 0.7304 0.6310
vn -0.3794 0.7304 0.5679
vn -0.4829 0.7304 0.4829
vn -0.5679 0.7304 0.3794
vn -0.6310 0.7304 0.2614
vn -0.6699 0.7304 0.1332
vn -0.6830 0.7304 -0.0000
vn -0.6699 0.7304 -0.1332
vn -0.6310 0.7304 -0.2614
vn -0.5679 0.7304 -0.3794
vn -0.4829 0.7304 -0.4829
vn -0.3794 0.7304 -0.5679
vn -0.2614 0.7304 -0.6310
vn -0.1332 0.7304 -0.6699
vn 0.9809 -0.0074 0.1946
vn 1.0000 -0.0033 0.0025
vn 0.9803 -0.0033 0.1975
vn -0.7074 -0.0074 -0.7067
vn -0.8301 -0.0033 -0.5576
vn -0.7053 -0.0033 -0.7089
vn 0.9238 -0.0063 0.3828
vn 0.9233 -0.0030 0.3840
vn -0.5560 -0.0074 -0.8312
vn -0.5535 -0.0033 -0.8328
vn 0.8318 -0.0078 0.5550
vn 0.8309 -0.0038 0.5564
vn -0.3831 -0.0074 -0.9237
vn -0.3804 -0.0033 -0.9248
vn -0.1946 -0.0074 0.9809
vn -0.0025 -0.0033 1.0000
vn -0.1975 -0.0033 0.9803
vn 0.7074 -0.0074 0.7067
vn 0.7054 -0.0033 0.7089
vn -0.1956 -0.0074 -0.9807
vn -0.1927 -0.0033 -0.9813
vn -0.3822 -0.0074 0.9240
vn -0.3850 -0.0033 0.9229
vn 0.5560 -0.0074 0.8312
vn 0.5535 -0.0033 0.8328
vn -0.0005 -0.0074 -1.0000
vn 0.0025 -0.0033 -1.0000
vn -0.5552 -0.0074 0.8317
vn -0.5576 -0.0033 0.8301
vn 0.3831 -0.0074 0.9237
vn 0.3804 -0.0033 0.9248
vn 0.1946 -0.0074 -0.9809
vn 0.1975 -0.0033 -0.9803
vn -0.7067 -0.0074 0.7074
vn -0.7089 -0.0033 0.7053
vn 0.1956 -0.0074 0.9807
vn 0.1927 -0.0033 0.9813
vn 0.3822 -0.0074 -0.9240
vn 0.3850 -0.0033 -0.9229
vn -0.8315 -0.0063 0.5554
vn -0.8323 -0.0030 0.5544
vn 0.0005 -0.0074 1.0000
vn 0.5552 -0.0074 -0.8317
vn 0.5576 -0.0033 -0.8301
vn -0.9236 -0.0078 0.3832
vn -0.9243 -0.0038 0.3817
vn 0.7067 -0.0074 -0.7074
vn 0.7089 -0.0033 -0.7053
vn -0.9807 -0.0074 0.1956
vn -0.9813 -0.0033 0.1927
vn 0.8312 -0.0074 -0.5560
vn 0.8328 -0.0033 -0.5535
vn -1.0000 -0.0074 0.0005
vn -1.0000 -0.0033 -0.0025
vn 0.9237 -0.0074 -0.3831
vn 0.9248 -0.0033 -0.3804
vn -0.9809 -0.0074 -0.1946
vn -0.9803 -0.0033 -0.1975
vn 0.9807 -0.0074 -0.1956
vn 0.9813 -0.0033 -0.1927
vn -0.9240 -0.0074 -0.3822
vn -0.9229 -0.0033 -0.3850
vn 1.0000 -0.0074 -0.0005
vn -0.8317 -0.0074 -0.5552
vn -0.7071 -0.0003 0.7071
vn -0.5556 -0.0003 0.8315
vn 0.1951 -0.0003 0.9808
vn 0.3827 -0.0003 0.9239
vn 0.3827 -0.0003 -0.9239
vn 0.1951 -0.0003 -0.9808
vn -0.8315 -0.0004 0.5555
vn -0.0000 -0.0003 1.0000
vn 0.5556 -0.0003 -0.8315
vn -0.9239 -0.0004 0.3827
vn 0.7071 -0.0003 -0.7071
vn -0.9808 -0.0003 0.1951
vn 0.8315 -0.0003 -0.5556
vn -1.0000 -0.0003 -0.0000
vn 0.9239 -0.0003 -0.3827
vn -0.9808 -0.0003 -0.1951
vn 0.9808 -0.0003 -0.1951
vn -0.9239 -0.0003 -0.3827
vn 1.0000 -0.0003 -0.0000
vn -0.8315 -0.0003 -0.5556
vn 0.9808 -0.0003 0.1951
vn -0.7071 -0.0003 -0.7071
vn 0.9239 -0.0004 0.3827
vn -0.5556 -0.0003 -0.8315
vn 0.8315 -0.0004 0.5555
vn -0.3827 -0.0003 -0.9239
vn -0.1951 -0.0003 0.9808
vn 0.7071 -0.0003 0.7071
vn -0.1951 -0.0003 -0.9808
vn -0.3827 -0.0003 0.9239
vn 0.5556 -0.0003 0.8315
vn -0.0000 -0.0003 -1.0000
vt 0.915498 0.084502
vt 0.941055 0.115168
vt 0.912943 0.082839
vt 0.584502 0.084502
vt 0.615168 0.058945
vt 0.582839 0.087057
vt 0.584502 0.415498
vt 0.558945 0.384832
vt 0.584948 0.415052
vt 0.915498 0.415498
vt 0.884832 0.441055
vt 0.915052 0.415052
vt 0.839567 0.033766
vt 0.874914 0.052317
vt 0.836570 0.033208
vt 0.531746 0.166052
vt 0.520484 0.207387
vt 0.520447 0.204339
vt 0.966234 0.339567
vt 0.947683 0.374914
vt 0.965651 0.339326
vt 0.789756 0.480437
vt 0.796822 0.485388
vt 0.795538 0.478934
vt 0.833948 0.468254
vt 0.841844 0.471731
vt 0.839326 0.465651
vt 0.883337 0.449553
vt 0.879681 0.444081
vt 0.874914 0.447683
vt 0.949553 0.383337
vt 0.944081 0.379681
vt 0.941055 0.384832
vt 0.983419 0.250000
vt 0.990000 0.250000
vt 0.983765 0.244036
vt 0.978934 0.204462
vt 0.985388 0.203178
vt 0.978110 0.198545
vt 0.965651 0.160674
vt 0.971731 0.158156
vt 0.963689 0.155031
vt 0.944081 0.120319
vt 0.949553 0.116663
vt 0.883337 0.050447
vt 0.879681 0.055919
vt 0.796822 0.014612
vt 0.789756 0.019563
vt 0.795538 0.021066
vt 0.704462 0.021066
vt 0.703178 0.014612
vt 0.698545 0.021890
vt 0.660674 0.034349
vt 0.658156 0.028269
vt 0.655031 0.036311
vt 0.620319 0.055919
vt 0.616663 0.050447
vt 0.550447 0.116663
vt 0.552317 0.125086
vt 0.555919 0.120319
vt 0.528269 0.158156
vt 0.534349 0.160674
vt 0.519563 0.289756
vt 0.514612 0.296822
vt 0.521066 0.295538
vt 0.531746 0.333948
vt 0.528269 0.341844
vt 0.534349 0.339326
vt 0.552317 0.374914
vt 0.550447 0.383337
vt 0.555919 0.379681
vt 0.616663 0.449553
vt 0.620319 0.444081
vt 0.615168 0.441055
vt 0.658156 0.471731
vt 0.660674 0.465651
vt 0.655031 0.463689
vt 0.703178 0.485388
vt 0.704462 0.478934
vt 0.698545 0.478110
vt 0.801455 0.478110
vt 0.794606 0.474251
vt 0.844969 0.463689
vt 0.837498 0.461240
vt 0.877028 0.440111
vt 0.940111 0.377028
vt 0.983765 0.255964
vt 0.978644 0.250000
vt 0.980437 0.210244
vt 0.974251 0.205394
vt 0.968254 0.166052
vt 0.961240 0.162502
vt 0.947683 0.125086
vt 0.940111 0.122972
vt 0.884832 0.058945
vt 0.877028 0.059889
vt 0.801455 0.021890
vt 0.794606 0.025749
vt 0.710245 0.019563
vt 0.705394 0.025749
vt 0.666052 0.031746
vt 0.662502 0.038760
vt 0.625086 0.052317
vt 0.622972 0.059889
vt 0.558945 0.115168
vt 0.559889 0.122972
vt 0.536311 0.155031
vt 0.538760 0.162502
vt 0.906250 0.875000
vt 0.937500 0.875000
vt 0.521890 0.301455
vt 0.525749 0.294606
vt 0.536311 0.344969
vt 0.538760 0.337498
vt 0.559889 0.377028
vt 0.625086 0.447683
vt 0.622972 0.440111
vt 0.666052 0.468254
vt 0.662502 0.461240
vt 0.710245 0.480437
vt 0.705394 0.474251
vt 0.062500 0.875000
vt 0.093750 0.875000
vt 0.875000 0.875000
vt 0.031250 0.875000
vt 0.843750 0.875000
vt 0.000000 0.875000
vt 0.812500 0.875000
vt 0.781250 0.875000
vt 0.750000 0.875000
vt 0.718750 0.875000
vt 0.687500 0.875000
vt 0.656250 0.875000
vt 0.625000 0.875000
vt 0.593750 0.875000
vt 0.562500 0.875000
vt 0.250000 0.480829
vt 0.204967 0.476394
vt 0.531250 0.875000
vt 0.750000 0.021356
vt 0.582839 0.412944
vt 0.837498 0.038760
vt 0.911676 0.088324
vt 0.911676 0.088324
vt 0.940111 0.122972
vt 0.978644 0.250000
vt 0.974251 0.294606
vt 0.961239 0.337498
vt 0.750000 0.478644
vt 0.588324 0.088324
vt 0.584948 0.084948
vt 0.559889 0.122972
vt 0.915052 0.084948
vt 0.525749 0.205394
vt 0.521356 0.250000
vt 0.912943 0.417161
vt 0.588324 0.411676
vt 0.839326 0.034349
vt 0.750000 0.478644
vt 0.521066 0.204462
vt 0.516234 0.249477
vt 0.979172 0.296119
vt 0.964510 0.342081
vt 0.911676 0.411676
vt 0.750000 0.490000
vt 0.919706 0.419706
vt 0.971731 0.341844
vt 0.985388 0.296822
vt 0.919706 0.080294
vt 0.841844 0.028269
vt 0.750000 0.010000
vt 0.746756 0.016392
vt 0.749477 0.016234
vt 0.580294 0.080294
vt 0.514612 0.203178
vt 0.510000 0.250000
vt 0.580294 0.419706
vt 0.750000 0.483765
vt 0.296822 0.485388
vt 0.250000 0.490000
vt 0.295033 0.476394
vt 0.341844 0.471731
vt 0.338335 0.463258
vt 0.383337 0.449553
vt 0.378242 0.441927
vt 0.419706 0.419706
vt 0.441927 0.378242
vt 0.449553 0.383337
vt 0.463258 0.338335
vt 0.471731 0.341844
vt 0.476394 0.295033
vt 0.485388 0.296822
vt 0.480829 0.250000
vt 0.490000 0.250000
vt 0.485388 0.203178
vt 0.476394 0.204967
vt 0.471731 0.158156
vt 0.463258 0.161665
vt 0.449553 0.116663
vt 0.441927 0.121758
vt 0.419706 0.080294
vt 0.378242 0.058073
vt 0.383337 0.050447
vt 0.338335 0.036742
vt 0.341844 0.028269
vt 0.295033 0.023606
vt 0.296822 0.014612
vt 0.250000 0.019171
vt 0.250000 0.010000
vt 0.203178 0.014612
vt 0.204967 0.023606
vt 0.158156 0.028269
vt 0.161665 0.036742
vt 0.116663 0.050447
vt 0.121758 0.058073
vt 0.080294 0.080294
vt 0.058073 0.121758
vt 0.050447 0.116663
vt 0.036742 0.161666
vt 0.028269 0.158156
vt 0.023606 0.204967
vt 0.014612 0.203178
vt 0.019171 0.250000
vt 0.010000 0.250000
vt 0.014612 0.296822
vt 0.023606 0.295033
vt 0.028269 0.341844
vt 0.036742 0.338335
vt 0.050447 0.383337
vt 0.058073 0.378242
vt 0.080294 0.419706
vt 0.121758 0.441927
vt 0.116663 0.449553
vt 0.161666 0.463258
vt 0.158156 0.471731
vt 0.203178 0.485388
vt 0.086779 0.086779
vt 0.413221 0.086779
vt 0.086779 0.413221
vt 0.413221 0.413221
vt 0.295033 0.023606
vt 0.441927 0.378242
vt 0.463258 0.338335
vt 0.086779 0.086779
vt 0.476394 0.204967
vt 0.031250 0.500000
vt 0.000000 0.500000
vt 0.062500 0.500000
vt 0.093750 0.500000
vt 0.125000 0.500000
vt 0.156250 0.500000
vt 0.125000 0.875000
vt 0.187500 0.500000
vt 0.156250 0.875000
vt 0.218750 0.500000
vt 0.187500 0.875000
vt 0.250000 0.500000
vt 0.218750 0.875000
vt 0.281250 0.500000
vt 0.250000 0.875000
vt 0.312500 0.500000
vt 0.281250 0.875000
vt 0.343750 0.500000
vt 0.312500 0.875000
vt 0.375000 0.500000
vt 0.343750 0.875000
vt 0.406250 0.500000
vt 0.375000 0.875000
vt 0.437500 0.500000
vt 0.406250 0.875000
vt 0.468750 0.500000
vt 0.437500 0.875000
vt 0.500000 0.500000
vt 0.468750 0.875000
vt 0.531250 0.500000
vt 0.500000 0.875000
vt 0.562500 0.500000
vt 0.593750 0.500000
vt 0.625000 0.500000
vt 0.656250 0.500000
vt 0.687500 0.500000
vt 0.718750 0.500000
vt 0.750000 0.500000
vt 0.781250 0.500000
vt 0.812500 0.500000
vt 0.843750 0.500000
vt 0.875000 0.500000
vt 0.906250 0.500000
vt 0.937500 0.500000
vt 0.968750 0.500000
vt 1.000000 0.500000
vt 0.968750 0.875000
vt 1.000000 0.875000
vt 0.968750 1.000000
vt 0.937500 1.000000
vt 0.906250 1.000000
vt 0.875000 1.000000
vt 0.843750 1.000000
vt 0.812500 1.000000
vt 0.781250 1.000000
vt 0.750000 1.000000
vt 0.718750 1.000000
vt 0.687500 1.000000
vt 0.656250 1.000000
vt 0.625000 1.000000
vt 0.593750 1.000000
vt 0.562500 1.000000
vt 0.531250 1.000000
vt 0.500000 1.000000
vt 0.468750 1.000000
vt 0.437500 1.000000
vt 0.406250 1.000000
vt 0.375000 1.000000
vt 0.343750 1.000000
vt 0.312500 1.000000
vt 0.281250 1.000000
vt 0.250000 1.000000
vt 0.218750 1.000000
vt 0.187500 1.000000
vt 0.156250 1.000000
vt 0.125000 1.000000
vt 0.093750 1.000000
vt 0.062500 1.000000
vt 0.031250 1.000000
vt 0.000000 1.000000
vt 0.000000 0.000000
vt 0.833763 0.996089
vt 0.583586 0.964084
vt 0.833763 0.964084
vt 0.583586 0.932080
vt 0.833763 0.932080
vt 0.583586 0.900075
vt 0.833763 0.900075
vt 0.583586 0.868071
vt 0.833763 0.868071
vt 0.583586 0.836066
vt 0.833763 0.836066
vt 0.583586 0.804062
vt 0.833763 0.804062
vt 0.583586 0.772057
vt 0.833763 0.772057
vt 0.583586 0.740053
vt 0.833763 0.740053
vt 0.583586 0.708048
vt 0.833763 0.708048
vt 0.583586 0.676044
vt 0.833763 0.676044
vt 0.583586 0.644039
vt 0.833763 0.644039
vt 0.583586 0.612035
vt 0.833763 0.612035
vt 0.583586 0.580030
vt 0.833763 0.580030
vt 0.583586 0.548026
vt 0.833763 0.548026
vt 0.583586 0.516021
vt 0.833763 0.516021
vt 0.583586 0.484017
vt 0.833763 0.484017
vt 0.583586 0.452012
vt 0.833763 0.452012
vt 0.583586 0.420008
vt 0.833763 0.420008
vt 0.583586 0.388003
vt 0.833763 0.388003
vt 0.583586 0.355999
vt 0.833763 0.355999
vt 0.583586 0.323994
vt 0.833763 0.323994
vt 0.583586 0.291990
vt 0.833763 0.291990
vt 0.583586 0.259985
vt 0.833763 0.259985
vt 0.583586 0.227981
vt 0.833763 0.227981
vt 0.583586 0.195976
vt 0.833763 0.195976
vt 0.583586 0.163972
vt 0.833763 0.163972
vt 0.583586 0.131967
vt 0.833763 0.131967
vt 0.583586 0.099963
vt 0.833763 0.099963
vt 0.583586 0.067958
vt 0.833763 0.067958
vt 0.583586 0.035954
vt 0.833763 0.035954
vt 0.583586 0.003949
vt 0.833763 0.003949
vt 0.583586 -0.028055
vt 0.833763 -0.028055
vt 1.000000 1.000000
vt 0.583586 0.996089
s 1
usemtl Metal
f 119/1/1 75/2/2 76/3/3
f 134/4/4 83/5/5 84/6/6
f 150/7/7 90/8/8 91/9/9
f 103/10/10 68/11/11 69/12/12
f 123/13/13 77/14/14 78/15/15
f 86/16/16 87/17/17 140/18/18
f 107/19/19 70/20/20 71/21/21
f 97/22/22 314/23/23 66/24/24
f 99/25/25 315/26/26 67/27/27
f 316/28/28 68/29/11 101/30/29
f 318/31/30 70/32/20 105/33/31
f 111/34/32 321/35/33 72/36/34
f 113/37/35 322/38/36 73/39/37
f 115/40/38 323/41/39 74/42/40
f 117/43/41 324/44/42 75/2/2
f 326/45/43 77/14/14 121/46/44
f 328/47/45 79/48/46 125/49/47
f 128/50/48 330/51/49 81/52/50
f 130/53/51 331/54/52 82/55/53
f 132/56/54 332/57/55 83/5/5
f 334/58/56 85/59/57 136/60/58
f 335/61/59 86/16/16 138/62/60
f 144/63/61 338/64/62 88/65/63
f 146/66/64 339/67/65 89/68/66
f 148/69/67 340/70/68 90/71/8
f 342/72/69 92/73/70 152/74/16
f 343/75/71 93/76/72 154/77/73
f 344/78/74 94/79/75 156/80/76
f 97/22/22 66/81/24 98/82/77
f 99/25/25 67/83/27 100/84/78
f 101/30/29 68/11/11 102/85/79
f 105/33/31 70/20/20 106/86/80
f 111/87/32 72/36/34 112/88/81
f 113/89/35 73/39/37 114/90/82
f 115/91/38 74/42/40 116/92/83
f 117/93/41 75/2/2 118/94/84
f 121/95/44 77/14/14 122/96/85
f 125/97/47 79/48/46 126/98/86
f 128/99/48 81/52/50 129/100/87
f 130/101/51 82/55/53 131/102/88
f 132/103/54 83/5/5 133/104/89
f 136/105/58 85/59/57 137/106/90
f 138/107/60 86/16/16 139/108/91
f 348/109/92 383/110/92 384/109/92
f 144/63/61 88/111/63 145/112/93
f 146/66/64 89/113/66 147/114/94
f 148/69/67 90/8/8 149/115/95
f 152/74/16 92/116/70 153/117/96
f 154/77/73 93/118/72 155/119/97
f 156/80/76 94/120/75 157/121/98
f 375/122/92 410/123/92 411/122/92
f 349/124/92 384/109/92 385/124/92
f 376/125/92 411/122/92 412/125/92
f 386/126/92 349/124/92 385/124/92
f 378/127/92 376/125/92 412/125/92
f 351/128/92 386/126/92 387/128/92
f 387/128/92 352/129/92 351/128/92
f 353/130/92 388/129/92 389/130/92
f 390/131/92 353/130/92 389/130/92
f 355/132/92 390/131/92 391/132/92
f 356/133/92 391/132/92 392/133/92
f 357/134/92 392/133/92 393/134/92
f 394/135/92 357/134/92 393/134/92
f 359/136/92 394/135/92 395/136/92
f 360/139/92 395/136/92 396/139/92
f 39/104/101 131/102/102 133/104/101
f 37/102/102 129/100/103 131/102/102
f 35/100/103 127/140/104 129/100/103
f 152/74/16 150/7/7 91/141/9
f 33/140/104 126/98/105 127/140/104
f 31/98/105 124/142/106 126/98/105
f 29/142/106 122/96/107 124/142/106
f 27/96/107 120/143/108 122/96/107
f 25/144/108 118/94/109 120/143/108
f 23/145/109 116/92/110 118/94/109
f 21/92/110 114/90/111 116/92/110
f 19/90/111 112/88/112 114/90/111
f 17/146/112 110/147/113 112/88/112
f 15/147/113 108/148/114 110/147/113
f 5/84/115 98/82/116 100/84/115
f 13/148/114 106/86/117 108/148/114
f 3/82/116 95/149/99 98/82/116
f 41/150/118 133/104/101 135/150/118
f 136/105/58 134/4/4 84/151/6
f 43/152/119 135/150/118 137/106/119
f 45/108/120 137/106/119 139/108/120
f 121/95/44 119/1/1 76/153/3
f 47/154/121 139/108/120 141/154/121
f 49/155/122 141/154/121 143/155/122
f 105/33/31 103/10/10 69/156/12
f 51/112/123 143/155/122 145/112/123
f 53/114/124 145/112/123 147/114/124
f 55/115/125 147/114/124 149/115/125
f 57/157/126 149/115/125 151/157/126
f 125/97/47 123/13/13 78/158/15
f 1/159/99 157/121/100 95/149/99
f 59/117/127 151/157/126 153/117/127
f 140/18/18 87/160/17 142/161/128
f 7/85/129 100/84/115 102/85/129
f 61/119/130 153/117/127 155/119/130
f 109/162/131 107/19/19 71/163/21
f 9/164/132 102/85/129 104/164/132
f 63/121/100 155/119/130 157/121/100
f 11/86/117 104/164/132 106/86/117
f 97/22/22 65/165/133 314/23/23
f 314/23/23 99/25/25 66/81/24
f 67/83/27 316/28/28 101/30/29
f 68/11/11 317/166/134 69/12/12
f 105/33/31 317/166/134 318/31/30
f 70/20/20 319/167/135 71/21/21
f 109/162/131 319/167/135 320/168/136
f 111/87/32 320/168/136 321/35/33
f 113/89/35 321/35/33 322/38/36
f 115/91/38 322/38/36 323/41/39
f 74/42/40 324/44/42 117/93/41
f 75/2/2 325/169/137 76/3/3
f 121/95/44 325/169/137 326/45/43
f 125/97/47 327/170/138 328/47/45
f 79/48/46 329/171/139 80/172/140
f 329/171/139 128/99/48 80/173/140
f 130/101/51 330/51/49 331/54/52
f 82/55/53 332/57/55 132/103/54
f 83/5/5 333/174/141 84/6/6
f 136/105/58 333/174/141 334/58/56
f 334/58/56 138/107/60 85/59/57
f 86/16/16 336/175/142 87/17/17
f 142/161/128 336/175/142 337/176/143
f 144/63/61 337/176/143 338/64/62
f 88/111/63 339/67/65 146/66/64
f 89/113/66 340/70/68 148/69/67
f 90/8/8 341/177/144 91/9/9
f 152/74/16 341/177/144 342/72/69
f 342/72/69 154/77/73 92/116/70
f 343/75/71 156/80/76 93/118/72
f 94/120/75 65/165/133 96/178/145
f 95/149/146 97/22/22 98/82/77
f 98/82/77 99/25/25 100/84/78
f 102/85/79 67/83/27 101/30/29
f 68/11/11 104/164/147 102/85/79
f 104/164/147 105/33/31 106/86/80
f 70/20/20 108/148/148 106/86/80
f 108/148/148 109/162/131 110/147/149
f 110/147/149 111/87/32 112/88/81
f 112/88/81 113/89/35 114/90/82
f 114/90/82 115/91/38 116/92/83
f 118/94/84 74/42/40 117/93/41
f 75/2/2 120/143/150 118/94/84
f 120/143/150 121/95/44 122/96/85
f 77/14/14 124/142/151 122/96/85
f 124/142/151 125/97/47 126/98/86
f 127/140/152 79/48/46 80/172/140
f 127/140/152 128/99/48 129/100/87
f 129/100/87 130/101/51 131/102/88
f 133/104/89 82/55/53 132/103/54
f 83/5/5 135/150/153 133/104/89
f 135/150/153 136/105/58 137/106/90
f 137/106/90 138/107/60 139/108/91
f 86/16/16 141/154/154 139/108/91
f 141/154/154 142/161/128 143/155/155
f 143/155/155 144/63/61 145/112/93
f 147/114/94 88/111/63 146/66/64
f 149/115/95 89/113/66 148/69/67
f 90/8/8 151/157/156 149/115/95
f 151/157/156 152/74/16 153/117/96
f 153/117/96 154/77/73 155/119/97
f 155/119/97 156/80/76 157/121/98
f 95/149/146 94/120/75 96/178/145
f 243/226/190 275/223/191 276/226/192
f 230/238/193 263/200/194 264/238/195
f 244/228/196 276/226/192 277/228/197
f 231/202/198 264/238/195 265/202/199
f 245/230/200 277/228/197 252/230/201
f 232/204/202 265/202/199 251/204/203
f 218/181/204 250/137/205 253/181/206
f 246/239/207 252/230/201 278/239/208
f 233/206/209 251/204/203 266/241/210
f 220/183/211 253/181/206 254/183/212
f 247/232/213 278/239/208 279/232/214
f 234/208/215 266/241/210 267/208/216
f 221/185/217 254/183/212 255/185/218
f 248/234/219 279/232/214 280/234/220
f 235/211/221 267/208/216 268/211/222
f 222/240/223 255/185/218 256/240/224
f 249/138/225 280/234/220 281/138/226
f 236/213/227 268/211/222 269/213/228
f 223/187/229 256/240/224 257/242/230
f 219/137/231 281/138/226 250/137/205
f 237/215/232 269/213/228 270/215/233
f 224/189/234 257/242/230 258/243/235
f 238/237/236 270/215/233 271/244/237
f 225/191/238 258/243/235 259/191/239
f 239/217/240 271/244/237 272/217/241
f 226/193/242 259/191/239 260/193/243
f 240/219/244 272/217/241 273/219/245
f 227/196/246 260/193/243 261/245/247
f 241/221/248 273/219/245 274/221/249
f 228/198/250 261/245/247 262/198/251
f 242/223/252 274/221/249 275/223/191
f 229/200/253 262/198/251 263/200/194
f 285/185/157 309/230/157 301/215/157
f 344/246/74 345/127/104 65/247/133
f 343/248/71 376/125/105 344/246/74
f 342/249/69 375/122/106 343/248/71
f 341/250/144 374/123/107 342/249/69
f 340/251/68 373/252/108 341/250/144
f 339/253/65 372/254/109 340/251/68
f 338/255/62 371/256/110 339/253/65
f 337/257/143 370/258/111 338/255/62
f 336/259/142 369/260/112 337/257/143
f 335/261/59 368/262/113 336/259/142
f 334/263/56 367/264/114 335/261/59
f 333/265/141 366/266/117 334/263/56
f 332/267/55 365/268/132 333/265/141
f 331/269/52 364/270/129 332/267/55
f 330/271/49 363/272/115 331/269/52
f 329/273/139 362/274/116 330/271/49
f 328/275/45 361/276/99 329/273/139
f 327/277/138 360/139/100 328/275/45
f 326/278/43 359/136/130 327/277/138
f 325/279/137 358/135/127 326/278/43
f 324/280/42 357/134/126 325/279/137
f 323/281/39 356/133/125 324/280/42
f 322/282/36 355/132/124 323/281/39
f 321/283/33 354/131/123 322/282/36
f 320/284/136 353/130/122 321/283/33
f 319/285/135 352/129/121 320/284/136
f 318/286/30 351/128/120 319/285/135
f 317/287/134 350/126/119 318/286/30
f 316/288/28 349/124/118 317/287/134
f 315/289/26 348/109/101 316/288/28
f 314/290/23 347/110/102 315/289/26
f 65/291/133 346/292/103 314/290/23
f 378/293/104 158/294/158 382/292/103
f 382/292/103 159/295/160 383/110/102
f 383/110/102 160/296/161 384/109/101
f 384/109/101 161/297/162 385/124/118
f 386/126/119 161/297/162 162/298/163
f 387/128/120 162/298/163 163/299/164
f 388/129/121 163/299/164 164/300/165
f 389/130/122 164/300/165 379/301/166
f 389/130/122 165/302/167 390/131/123
f 390/131/123 166/303/168 391/132/124
f 391/132/124 167/304/169 392/133/125
f 392/133/125 168/305/170 393/134/126
f 394/135/127 168/305/170 169/306/171
f 395/136/130 169/306/171 170/307/172
f 396/139/100 170/307/172 171/308/173
f 397/276/99 171/308/173 172/309/174
f 397/276/99 380/310/175 398/274/116
f 398/274/116 173/311/176 399/272/115
f 399/272/115 174/312/177 400/270/129
f 400/270/129 175/313/178 401/268/132
f 402/266/117 175/313/178 176/314/179
f 403/264/114 176/314/179 177/315/180
f 404/262/113 177/315/180 178/316/181
f 405/260/112 178/316/181 179/317/182
f 405/260/112 381/318/183 406/258/111
f 406/258/111 180/319/184 407/256/110
f 407/256/110 181/320/185 408/254/109
f 408/254/109 182/321/186 409/252/108
f 410/123/107 182/321/186 183/322/187
f 411/122/106 183/322/187 184/323/188
f 412/125/105 184/323/188 185/324/189
f 378/127/104 185/324/189 377/325/159
f 410/123/92 373/252/92 409/252/92
f 347/110/92 382/292/92 383/110/92
f 373/252/92 408/254/92 409/252/92
f 378/293/92 346/292/92 345/293/92
f 372/254/92 407/256/92 408/254/92
f 407/256/92 370/258/92 406/258/92
f 370/258/92 405/260/92 406/258/92
f 405/260/92 368/262/92 404/262/92
f 368/262/92 403/264/92 404/262/92
f 367/264/92 402/266/92 403/264/92
f 402/266/92 365/268/92 401/268/92
f 365/268/92 400/270/92 401/268/92
f 364/270/92 399/272/92 400/270/92
f 398/274/92 363/272/92 362/274/92
f 397/276/92 362/274/92 361/276/92
f 397/276/92 360/139/92 396/139/92
f 348/109/92 347/110/92 383/110/92
f 375/122/92 374/123/92 410/123/92
f 349/124/92 348/109/92 384/109/92
f 376/125/92 375/122/92 411/122/92
f 386/126/92 350/126/92 349/124/92
f 378/127/92 345/127/92 376/125/92
f 351/128/92 350/126/92 386/126/92
f 387/128/92 388/129/92 352/129/92
f 353/130/92 352/129/92 388/129/92
f 390/131/92 354/131/92 353/130/92
f 355/132/92 354/131/92 390/131/92
f 356/133/92 355/132/92 391/132/92
f 357/134/92 356/133/92 392/133/92
f 394/135/92 358/135/92 357/134/92
f 359/136/92 358/135/92 394/135/92
f 360/139/92 359/136/92 395/136/92
f 39/104/101 37/102/102 131/102/102
f 37/102/102 35/100/103 129/100/103
f 35/100/103 33/140/104 127/140/104
f 33/140/104 31/98/105 126/98/105
f 31/98/105 29/142/106 124/142/106
f 29/142/106 27/96/107 122/96/107
f 27/96/107 25/144/108 120/143/108
f 25/144/108 23/145/109 118/94/109
f 23/145/109 21/92/110 116/92/110
f 21/92/110 19/90/111 114/90/111
f 19/90/111 17/146/112 112/88/112
f 17/146/112 15/147/113 110/147/113
f 15/147/113 13/148/114 108/148/114
f 5/84/115 3/82/116 98/82/116
f 13/148/114 11/86/117 106/86/117
f 3/82/116 1/159/99 95/149/99
f 41/150/118 39/104/101 133/104/101
f 43/152/119 41/150/118 135/150/118
f 45/108/120 43/152/119 137/106/119
f 47/154/121 45/108/120 139/108/120
f 49/155/122 47/154/121 141/154/121
f 51/112/123 49/155/122 143/155/122
f 53/114/124 51/112/123 145/112/123
f 55/115/125 53/114/124 147/114/124
f 57/157/126 55/115/125 149/115/125
f 1/159/99 63/121/100 157/121/100
f 59/117/127 57/157/126 151/157/126
f 7/85/129 5/84/115 100/84/115
f 61/119/130 59/117/127 153/117/127
f 9/164/132 7/85/129 102/85/129
f 63/121/100 61/119/130 155/119/130
f 11/86/117 9/164/132 104/164/132
f 97/22/22 96/178/145 65/165/133
f 314/23/23 315/26/26 99/25/25
f 67/83/27 315/26/26 316/28/28
f 68/11/11 316/28/28 317/166/134
f 105/33/31 69/156/12 317/166/134
f 70/20/20 318/31/30 319/167/135
f 109/162/131 71/163/21 319/167/135
f 111/87/32 109/162/131 320/168/136
f 113/89/35 72/36/34 321/35/33
f 115/91/38 73/39/37 322/38/36
f 74/42/40 323/41/39 324/44/42
f 75/2/2 324/44/42 325/169/137
f 121/95/44 76/153/3 325/169/137
f 125/97/47 78/158/15 327/170/138
f 79/48/46 328/47/45 329/171/139
f 329/171/139 330/51/49 128/99/48
f 130/101/51 81/52/50 330/51/49
f 82/55/53 331/54/52 332/57/55
f 83/5/5 332/57/55 333/174/141
f 136/105/58 84/151/6 333/174/141
f 334/58/56 335/61/59 138/107/60
f 86/16/16 335/61/59 336/175/142
f 142/161/128 87/160/17 336/175/142
f 144/63/61 142/161/128 337/176/143
f 88/111/63 338/64/62 339/67/65
f 89/113/66 339/67/65 340/70/68
f 90/8/8 340/70/68 341/177/144
f 152/74/16 91/141/9 341/177/144
f 342/72/69 343/75/71 154/77/73
f 343/75/71 344/78/74 156/80/76
f 94/120/75 344/78/74 65/165/133
f 95/149/146 96/178/145 97/22/22
f 98/82/77 66/81/24 99/25/25
f 102/85/79 100/84/78 67/83/27
f 68/11/11 103/10/10 104/164/147
f 104/164/147 103/10/10 105/33/31
f 70/20/20 107/19/19 108/148/148
f 108/148/148 107/19/19 109/162/131
f 110/147/149 109/162/131 111/87/32
f 112/88/81 72/36/34 113/89/35
f 114/90/82 73/39/37 115/91/38
f 118/94/84 116/92/83 74/42/40
f 75/2/2 119/1/1 120/143/150
f 120/143/150 119/1/1 121/95/44
f 77/14/14 123/13/13 124/142/151
f 124/142/151 123/13/13 125/97/47
f 127/140/152 126/98/86 79/48/46
f 127/140/152 80/173/140 128/99/48
f 129/100/87 81/52/50 130/101/51
f 133/104/89 131/102/88 82/55/53
f 83/5/5 134/4/4 135/150/153
f 135/150/153 134/4/4 136/105/58
f 137/106/90 85/59/57 138/107/60
f 86/16/16 140/18/18 141/154/154
f 141/154/154 140/18/18 142/161/128
f 143/155/155 142/161/128 144/63/61
f 147/114/94 145/112/93 88/111/63
f 149/115/95 147/114/94 89/113/66
f 90/8/8 150/7/7 151/157/156
f 151/157/156 150/7/7 152/74/16
f 153/117/96 92/116/70 154/77/73
f 155/119/97 93/118/72 156/80/76
f 95/149/146 157/121/98 94/120/75
f 243/226/190 242/223/252 275/223/191
f 230/238/193 229/200/253 263/200/194
f 244/228/196 243/226/190 276/226/192
f 231/202/198 230/238/193 264/238/195
f 245/230/200 244/228/196 277/228/197
f 232/204/202 231/202/198 265/202/199
f 218/181/204 219/137/231 250/137/205
f 246/239/207 245/230/200 252/230/201
f 233/206/209 232/204/202 251/204/203
f 220/183/211 218/181/204 253/181/206
f 247/232/213 246/239/207 278/239/208
f 234/208/215 233/206/209 266/241/210
f 221/185/217 220/183/211 254/183/212
f 248/234/219 247/232/213 279/232/214
f 235/211/221 234/208/215 267/208/216
f 222/240/223 221/185/217 255/185/218
f 249/138/225 248/234/219 280/234/220
f 236/213/227 235/211/221 268/211/222
f 223/187/229 222/240/223 256/240/224
f 219/137/231 249/138/225 281/138/226
f 237/215/232 236/213/227 269/213/228
f 224/189/234 223/187/229 257/242/230
f 238/237/236 237/215/232 270/215/233
f 225/191/238 224/189/234 258/243/235
f 239/217/240 238/237/236 271/244/237
f 226/193/242 225/191/238 259/191/239
f 240/219/244 239/217/240 272/217/241
f 227/196/246 226/193/242 260/193/243
f 241/221/248 240/219/244 273/219/245
f 228/198/250 227/196/246 261/245/247
f 242/223/252 241/221/248 274/221/249
f 229/200/253 228/198/250 262/198/251
f 301/215/157 300/213/157 299/211/157
f 299/211/157 298/208/157 297/206/157
f 297/206/157 296/204/157 295/202/157
f 295/202/157 294/238/157 293/200/157
f 293/200/157 292/198/157 291/196/157
f 291/196/157 290/193/157 289/191/157
f 289/191/157 288/189/157 287/187/157
f 287/187/157 286/240/157 285/185/157
f 285/185/157 284/183/157 282/181/157
f 282/181/157 283/137/157 313/138/157
f 313/138/157 312/234/157 311/232/157
f 311/232/157 310/239/157 309/230/157
f 309/230/157 308/228/157 307/226/157
f 307/226/157 306/223/157 305/221/157
f 305/221/157 304/219/157 303/217/157
f 303/217/157 302/237/157 301/215/157
f 301/215/157 299/211/157 297/206/157
f 297/206/157 295/202/157 293/200/157
f 293/200/157 291/196/157 289/191/157
f 289/191/157 287/187/157 285/185/157
f 285/185/157 282/181/157 313/138/157
f 313/138/157 311/232/157 309/230/157
f 309/230/157 307/226/157 305/221/157
f 305/221/157 303/217/157 301/215/157
f 301/215/157 297/206/157 293/200/157
f 293/200/157 289/191/157 285/185/157
f 285/185/157 313/138/157 309/230/157
f 309/230/157 305/221/157 301/215/157
f 301/215/157 293/200/157 285/185/157
f 344/246/74 376/125/105 345/127/104
f 343/248/71 375/122/106 376/125/105
f 342/249/69 374/123/107 375/122/106
f 341/250/144 373/252/108 374/123/107
f 340/251/68 372/254/109 373/252/108
f 339/253/65 371/256/110 372/254/109
f 338/255/62 370/258/111 371/256/110
f 337/257/143 369/260/112 370/258/111
f 336/259/142 368/262/113 369/260/112
f 335/261/59 367/264/114 368/262/113
f 334/263/56 366/266/117 367/264/114
f 333/265/141 365/268/132 366/266/117
f 332/267/55 364/270/129 365/268/132
f 331/269/52 363/272/115 364/270/129
f 330/271/49 362/274/116 363/272/115
f 329/273/139 361/276/99 362/274/116
f 328/275/45 360/139/100 361/276/99
f 327/277/138 359/136/130 360/139/100
f 326/278/43 358/135/127 359/136/130
f 325/279/137 357/134/126 358/135/127
f 324/280/42 356/133/125 357/134/126
f 323/281/39 355/132/124 356/133/125
f 322/282/36 354/131/123 355/132/124
f 321/283/33 353/130/122 354/131/123
f 320/284/136 352/129/121 353/130/122
f 319/285/135 351/128/120 352/129/121
f 318/286/30 350/126/119 351/128/120
f 317/287/134 349/124/118 350/126/119
f 316/288/28 348/109/101 349/124/118
f 315/289/26 347/110/102 348/109/101
f 314/290/23 346/292/103 347/110/102
f 65/291/133 345/293/104 346/292/103
f 378/293/104 377/392/159 158/294/158
f 382/292/103 158/294/158 159/295/160
f 383/110/102 159/295/160 160/296/161
f 384/109/101 160/296/161 161/297/162
f 386/126/119 385/124/118 161/297/162
f 387/128/120 386/126/119 162/298/163
f 388/129/121 387/128/120 163/299/164
f 389/130/122 388/129/121 164/300/165
f 389/130/122 379/301/166 165/302/167
f 390/131/123 165/302/167 166/303/168
f 391/132/124 166/303/168 167/304/169
f 392/133/125 167/304/169 168/305/170
f 394/135/127 393/134/126 168/305/170
f 395/136/130 394/135/127 169/306/171
f 396/139/100 395/136/130 170/307/172
f 397/276/99 396/139/100 171/308/173
f 397/276/99 172/309/174 380/310/175
f 398/274/116 380/310/175 173/311/176
f 399/272/115 173/311/176 174/312/177
f 400/270/129 174/312/177 175/313/178
f 402/266/117 401/268/132 175/313/178
f 403/264/114 402/266/117 176/314/179
f 404/262/113 403/264/114 177/315/180
f 405/260/112 404/262/113 178/316/181
f 405/260/112 179/317/182 381/318/183
f 406/258/111 381/318/183 180/319/184
f 407/256/110 180/319/184 181/320/185
f 408/254/109 181/320/185 182/321/186
f 410/123/107 409/252/108 182/321/186
f 411/122/106 410/123/107 183/322/187
f 412/125/105 411/122/106 184/323/188
f 378/127/104 412/125/105 185/324/189
f 410/123/92 374/123/92 373/252/92
f 347/110/92 346/292/92 382/292/92
f 373/252/92 372/254/92 408/254/92
f 378/293/92 382/292/92 346/292/92
f 372/254/92 371/256/92 407/256/92
f 407/256/92 371/256/92 370/258/92
f 370/258/92 369/260/92 405/260/92
f 405/260/92 369/260/92 368/262/92
f 368/262/92 367/264/92 403/264/92
f 367/264/92 366/266/92 402/266/92
f 402/266/92 366/266/92 365/268/92
f 365/268/92 364/270/92 400/270/92
f 364/270/92 363/272/92 399/272/92
f 398/274/92 399/272/92 363/272/92
f 397/276/92 398/274/92 362/274/92
f 397/276/92 361/276/92 360/139/92
usemtl Material.002
f 2/137/99 217/138/100 187/137/99
f 37/102/92 53/114/92 5/84/92
f 77/14/14 327/170/138 78/15/15
f 2/137/157 158/179/158 377/180/159
f 4/181/157 159/182/160 158/179/158
f 6/183/157 160/184/161 159/182/160
f 8/185/157 161/186/162 160/184/161
f 161/186/162 12/187/157 162/188/163
f 162/188/163 14/189/157 163/190/164
f 163/190/164 16/191/157 164/192/165
f 164/192/165 18/193/157 379/194/166
f 18/193/157 165/195/167 379/194/166
f 20/196/157 166/197/168 165/195/167
f 22/198/157 167/199/169 166/197/168
f 24/200/157 168/201/170 167/199/169
f 168/201/170 28/202/157 169/203/171
f 169/203/171 30/204/157 170/205/172
f 170/205/172 32/206/157 171/207/173
f 171/207/173 34/208/157 172/209/174
f 34/208/157 380/210/175 172/209/174
f 36/211/157 173/212/176 380/210/175
f 38/213/157 174/214/177 173/212/176
f 40/215/157 175/216/178 174/214/177
f 175/216/178 44/217/157 176/218/179
f 176/218/179 46/219/157 177/220/180
f 177/220/180 48/221/157 178/222/181
f 178/222/181 50/223/157 179/224/182
f 50/223/157 381/225/183 179/224/182
f 52/226/157 180/227/184 381/225/183
f 54/228/157 181/229/185 180/227/184
f 56/230/157 182/231/186 181/229/185
f 182/231/186 60/232/157 183/233/187
f 183/233/187 62/234/157 184/235/188
f 184/235/188 64/138/157 185/236/189
f 185/236/189 2/137/157 377/180/159
f 208/219/157 239/217/157 240/219/157
f 40/215/101 204/213/102 205/215/101
f 14/189/114 191/187/117 192/189/114
f 42/237/118 205/215/101 206/237/118
f 16/191/113 192/189/114 193/191/113
f 44/217/119 206/237/118 207/217/119
f 18/193/112 193/191/113 194/193/112
f 46/219/120 207/217/119 208/219/120
f 20/196/111 194/193/112 195/196/111
f 48/221/121 208/219/120 209/221/121
f 22/198/110 195/196/111 196/198/110
f 50/223/122 209/221/121 210/223/122
f 24/200/109 196/198/110 197/200/109
f 52/226/123 210/223/122 211/226/123
f 26/238/108 197/200/109 198/238/108
f 54/228/124 211/226/123 212/228/124
f 28/202/107 198/238/108 199/202/107
f 56/230/125 212/228/124 213/230/125
f 30/204/106 199/202/107 200/204/106
f 4/181/116 187/137/99 186/181/116
f 58/239/126 213/230/125 214/239/126
f 32/206/105 200/204/106 201/206/105
f 6/183/115 186/181/116 188/183/115
f 60/232/127 214/239/126 215/232/127
f 34/208/104 201/206/105 202/208/104
f 8/185/129 188/183/115 189/185/129
f 62/234/130 215/232/127 216/234/130
f 36/211/103 202/208/104 203/211/103
f 10/240/132 189/185/129 190/240/132
f 64/138/100 216/234/130 217/138/100
f 38/213/102 203/211/103 204/213/102
f 12/187/117 190/240/132 191/187/117
f 195/196/157 226/193/157 227/196/157
f 241/221/157 208/219/157 240/219/157
f 196/198/157 227/196/157 228/198/157
f 210/223/157 241/221/157 242/223/157
f 229/200/157 196/198/157 228/198/157
f 243/226/157 210/223/157 242/223/157
f 198/238/157 229/200/157 230/238/157
f 243/226/157 212/228/157 211/226/157
f 231/202/157 198/238/157 230/238/157
f 245/230/157 212/228/157 244/228/157
f 200/204/157 231/202/157 232/204/157
f 218/181/157 187/137/157 219/137/157
f 214/239/157 245/230/157 246/239/157
f 201/206/157 232/204/157 233/206/157
f 188/183/157 218/181/157 220/183/157
f 247/232/157 214/239/157 246/239/157
f 233/206/157 202/208/157 201/206/157
f 221/185/157 188/183/157 220/183/157
f 216/234/157 247/232/157 248/234/157
f 235/211/157 202/208/157 234/208/157
f 190/240/157 221/185/157 222/240/157
f 249/138/157 216/234/157 248/234/157
f 204/213/157 235/211/157 236/213/157
f 223/187/157 190/240/157 222/240/157
f 249/138/157 187/137/157 217/138/157
f 237/215/157 204/213/157 236/213/157
f 192/189/157 223/187/157 224/189/157
f 206/237/157 237/215/157 238/237/157
f 225/191/157 192/189/157 224/189/157
f 239/217/157 206/237/157 238/237/157
f 194/193/157 225/191/157 226/193/157
f 286/240/254 255/185/218 285/185/255
f 313/138/256 280/234/220 312/234/257
f 300/213/258 268/211/222 299/211/259
f 287/187/260 256/240/224 286/240/254
f 283/137/261 281/138/226 313/138/256
f 301/215/262 269/213/228 300/213/258
f 288/189/263 257/242/230 287/187/260
f 302/237/264 270/215/233 301/215/262
f 289/191/265 258/243/235 288/189/263
f 303/217/266 271/244/237 302/237/264
f 290/193/267 259/191/239 289/191/265
f 304/219/268 272/217/241 303/217/266
f 291/196/269 260/193/243 290/193/267
f 305/221/270 273/219/245 304/219/268
f 292/198/271 261/245/247 291/196/269
f 306/223/272 274/221/249 305/221/270
f 293/200/273 262/198/251 292/198/271
f 307/226/274 275/223/191 306/223/272
f 294/238/275 263/200/194 293/200/273
f 308/228/276 276/226/192 307/226/274
f 295/202/277 264/238/195 294/238/275
f 309/230/278 277/228/197 308/228/276
f 296/204/279 265/202/199 295/202/277
f 282/181/280 250/137/205 283/137/261
f 310/239/281 252/230/201 309/230/278
f 297/206/282 251/204/203 296/204/279
f 284/183/283 253/181/206 282/181/280
f 311/232/284 278/239/208 310/239/281
f 298/208/285 266/241/210 297/206/282
f 285/185/255 254/183/212 284/183/283
f 312/234/257 279/232/214 311/232/284
f 299/211/259 267/208/216 298/208/285
f 2/137/99 64/138/100 217/138/100
f 5/84/92 7/85/92 9/164/92
f 9/164/92 11/86/92 13/148/92
f 13/148/92 15/147/92 17/146/92
f 17/146/92 19/90/92 21/92/92
f 21/92/92 23/145/92 25/144/92
f 25/144/92 27/96/92 29/142/92
f 29/142/92 31/98/92 33/140/92
f 33/140/92 35/100/92 37/102/92
f 37/102/92 39/104/92 41/150/92
f 41/150/92 43/152/92 45/108/92
f 45/108/92 47/154/92 49/155/92
f 49/155/92 51/112/92 53/114/92
f 53/114/92 55/115/92 57/157/92
f 57/157/92 59/117/92 61/119/92
f 61/119/92 63/121/92 1/159/92
f 1/159/92 3/82/92 5/84/92
f 5/84/92 9/164/92 13/148/92
f 13/148/92 17/146/92 21/92/92
f 21/92/92 25/144/92 29/142/92
f 29/142/92 33/140/92 37/102/92
f 37/102/92 41/150/92 45/108/92
f 45/108/92 49/155/92 53/114/92
f 53/114/92 57/157/92 61/119/92
f 61/119/92 1/159/92 5/84/92
f 5/84/92 13/148/92 21/92/92
f 21/92/92 29/142/92 37/102/92
f 37/102/92 45/108/92 53/114/92
f 53/114/92 61/119/92 5/84/92
f 5/84/92 21/92/92 37/102/92
f 77/14/14 326/45/43 327/170/138
f 2/137/157 4/181/157 158/179/158
f 4/181/157 6/183/157 159/182/160
f 6/183/157 8/185/157 160/184/161
f 8/185/157 10/240/157 161/186/162
f 161/186/162 10/240/157 12/187/157
f 162/188/163 12/187/157 14/189/157
f 163/190/164 14/189/157 16/191/157
f 164/192/165 16/191/157 18/193/157
f 18/193/157 20/196/157 165/195/167
f 20/196/157 22/198/157 166/197/168
f 22/198/157 24/200/157 167/199/169
f 24/200/157 26/238/157 168/201/170
f 168/201/170 26/238/157 28/202/157
f 169/203/171 28/202/157 30/204/157
f 170/205/172 30/204/157 32/206/157
f 171/207/173 32/206/157 34/208/157
f 34/208/157 36/211/157 380/210/175
f 36/211/157 38/213/157 173/212/176
f 38/213/157 40/215/157 174/214/177
f 40/215/157 42/237/157 175/216/178
f 175/216/178 42/237/157 44/217/157
f 176/218/179 44/217/157 46/219/157
f 177/220/180 46/219/157 48/221/157
f 178/222/181 48/221/157 50/223/157
f 50/223/157 52/226/157 381/225/183
f 52/226/157 54/228/157 180/227/184
f 54/228/157 56/230/157 181/229/185
f 56/230/157 58/239/157 182/231/186
f 182/231/186 58/239/157 60/232/157
f 183/233/187 60/232/157 62/234/157
f 184/235/188 62/234/157 64/138/157
f 185/236/189 64/138/157 2/137/157
f 208/219/157 207/217/157 239/217/157
f 40/215/101 38/213/102 204/213/102
f 14/189/114 12/187/117 191/187/117
f 42/237/118 40/215/101 205/215/101
f 16/191/113 14/189/114 192/189/114
f 44/217/119 42/237/118 206/237/118
f 18/193/112 16/191/113 193/191/113
f 46/219/120 44/217/119 207/217/119
f 20/196/111 18/193/112 194/193/112
f 48/221/121 46/219/120 208/219/120
f 22/198/110 20/196/111 195/196/111
f 50/223/122 48/221/121 209/221/121
f 24/200/109 22/198/110 196/198/110
f 52/226/123 50/223/122 210/223/122
f 26/238/108 24/200/109 197/200/109
f 54/228/124 52/226/123 211/226/123
f 28/202/107 26/238/108 198/238/108
f 56/230/125 54/228/124 212/228/124
f 30/204/106 28/202/107 199/202/107
f 4/181/116 2/137/99 187/137/99
f 58/239/126 56/230/125 213/230/125
f 32/206/105 30/204/106 200/204/106
f 6/183/115 4/181/116 186/181/116
f 60/232/127 58/239/126 214/239/126
f 34/208/104 32/206/105 201/206/105
f 8/185/129 6/183/115 188/183/115
f 62/234/130 60/232/127 215/232/127
f 36/211/103 34/208/104 202/208/104
f 10/240/132 8/185/129 189/185/129
f 64/138/100 62/234/130 216/234/130
f 38/213/102 36/211/103 203/211/103
f 12/187/117 10/240/132 190/240/132
f 195/196/157 194/193/157 226/193/157
f 241/221/157 209/221/157 208/219/157
f 196/198/157 195/196/157 227/196/157
f 210/223/157 209/221/157 241/221/157
f 229/200/157 197/200/157 196/198/157
f 243/226/157 211/226/157 210/223/157
f 198/238/157 197/200/157 229/200/157
f 243/226/157 244/228/157 212/228/157
f 231/202/157 199/202/157 198/238/157
f 245/230/157 213/230/157 212/228/157
f 200/204/157 199/202/157 231/202/157
f 218/181/157 186/181/157 187/137/157
f 214/239/157 213/230/157 245/230/157
f 201/206/157 200/204/157 232/204/157
f 188/183/157 186/181/157 218/181/157
f 247/232/157 215/232/157 214/239/157
f 233/206/157 234/208/157 202/208/157
f 221/185/157 189/185/157 188/183/157
f 216/234/157 215/232/157 247/232/157
f 235/211/157 203/211/157 202/208/157
f 190/240/157 189/185/157 221/185/157
f 249/138/157 217/138/157 216/234/157
f 204/213/157 203/211/157 235/211/157
f 223/187/157 191/187/157 190/240/157
f 249/138/157 219/137/157 187/137/157
f 237/215/157 205/215/157 204/213/157
f 192/189/157 191/187/157 223/187/157
f 206/237/157 205/215/157 237/215/157
f 225/191/157 193/191/157 192/189/157
f 239/217/157 207/217/157 206/237/157
f 194/193/157 193/191/157 225/191/157
f 286/240/254 256/240/224 255/185/218
f 313/138/256 281/138/226 280/234/220
f 300/213/258 269/213/228 268/211/222
f 287/187/260 257/242/230 256/240/224
f 283/137/261 250/137/205 281/138/226
f 301/215/262 270/215/233 269/213/228
f 288/189/263 258/243/235 257/242/230
f 302/237/264 271/244/237 270/215/233
f 289/191/265 259/191/239 258/243/235
f 303/217/266 272/217/241 271/244/237
f 290/193/267 260/193/243 259/191/239
f 304/219/268 273/219/245 272/217/241
f 291/196/269 261/245/247 260/193/243
f 305/221/270 274/221/249 273/219/245
f 292/198/271 262/198/251 261/245/247
f 306/223/272 275/223/191 274/221/249
f 293/200/273 263/200/194 262/198/251
f 307/226/274 276/226/192 275/223/191
f 294/238/275 264/238/195 263/200/194
f 308/228/276 277/228/197 276/226/192
f 295/202/277 265/202/199 264/238/195
f 309/230/278 252/230/201 277/228/197
f 296/204/279 251/204/203 265/202/199
f 282/181/280 253/181/206 250/137/205
f 310/239/281 278/239/208 252/230/201
f 297/206/282 266/241/210 251/204/203
f 284/183/283 254/183/212 253/181/206
f 311/232/284 279/232/214 278/239/208
f 298/208/285 267/208/216 266/241/210
f 285/185/255 255/185/218 254/183/212
f 312/234/257 280/234/220 279/232/214
f 299/211/259 268/211/222 267/208/216
usemtl Plastic
f 413/326/157 514/326/157 415/326/157
f 444/326/157 511/326/157 414/326/157
f 563/326/157 547/326/157 531/326/157
f 416/326/157 518/326/157 417/326/157
f 518/326/157 418/326/157 417/326/157
f 418/326/157 522/326/157 419/326/157
f 522/326/157 420/326/157 419/326/157
f 524/326/157 421/326/157 420/326/157
f 422/326/157 526/326/157 528/326/157
f 528/326/157 423/326/157 422/326/157
f 423/326/157 532/326/157 424/326/157
f 424/326/157 534/326/157 425/326/157
f 534/326/157 426/326/157 425/326/157
f 426/326/157 538/326/157 427/326/157
f 538/326/157 428/326/157 427/326/157
f 428/326/157 542/326/157 429/326/157
f 429/326/157 544/326/157 430/326/157
f 544/326/157 431/326/157 430/326/157
f 431/326/157 548/326/157 432/326/157
f 432/326/157 550/326/157 433/326/157
f 550/326/157 434/326/157 433/326/157
f 434/326/157 554/326/157 435/326/157
f 554/326/157 436/326/157 435/326/157
f 436/326/157 558/326/157 437/326/157
f 558/326/157 438/326/157 437/326/157
f 560/326/157 439/326/157 438/326/157
f 439/326/157 564/326/157 440/326/157
f 440/326/157 566/326/157 441/326/157
f 566/326/157 442/326/157 441/326/157
f 568/326/157 443/326/157 442/326/157
f 443/326/157 572/326/157 444/326/157
f 473/326/157 475/326/157 474/326/157
f 415/326/157 516/326/157 416/326/157
f 439/326/110 504/326/109 503/326/110
f 426/326/127 491/326/130 490/326/127
f 414/326/104 477/326/103 478/326/104
f 440/326/109 505/326/108 504/326/109
f 427/326/130 492/326/100 491/326/130
f 413/326/103 479/326/102 477/326/103
f 441/326/108 506/326/107 505/326/108
f 428/326/100 493/326/99 492/326/100
f 415/326/102 480/326/101 479/326/102
f 442/326/107 507/326/106 506/326/107
f 429/326/99 494/326/116 493/326/99
f 416/326/101 481/326/118 480/326/101
f 443/326/106 508/326/105 507/326/106
f 430/326/116 495/326/115 494/326/116
f 417/326/118 482/326/119 481/326/118
f 444/326/105 478/326/104 508/326/105
f 431/326/115 496/326/129 495/326/115
f 418/326/119 483/326/120 482/326/119
f 432/326/129 497/326/132 496/326/129
f 419/326/120 484/326/121 483/326/120
f 433/326/132 498/326/117 497/326/132
f 420/326/121 485/326/122 484/326/121
f 434/326/117 499/326/114 498/326/117
f 421/326/122 486/326/123 485/326/122
f 435/326/114 500/326/113 499/326/114
f 422/326/123 487/326/124 486/326/123
f 436/326/113 501/326/112 500/326/113
f 423/326/124 488/326/125 487/326/124
f 437/326/112 502/326/111 501/326/112
f 424/326/125 489/326/126 488/326/125
f 438/326/111 503/326/110 502/326/111
f 425/326/126 490/326/127 489/326/126
f 532/326/125 455/326/124 453/326/125
f 563/326/125 597/326/126 595/326/125
f 514/326/102 475/326/103 471/326/102
f 545/326/102 579/326/101 577/326/102
f 566/326/108 596/326/109 598/326/108
f 527/326/111 456/326/110 458/326/111
f 548/326/129 578/326/115 580/326/129
f 512/326/99 476/326/116 473/326/99
f 530/326/124 457/326/123 455/326/124
f 561/326/124 595/326/125 593/326/124
f 543/326/103 577/326/102 575/326/103
f 564/326/109 594/326/110 596/326/109
f 510/326/103 474/326/104 475/326/103
f 525/326/112 458/326/111 460/326/112
f 546/326/115 576/326/116 578/326/115
f 528/326/123 459/326/122 457/326/123
f 559/326/123 593/326/124 591/326/123
f 541/326/104 575/326/103 573/326/104
f 562/326/110 592/326/111 594/326/110
f 523/326/113 460/326/112 462/326/113
f 544/326/116 574/326/99 576/326/116
f 526/326/122 461/326/121 459/326/122
f 557/326/122 591/326/123 589/326/122
f 539/326/105 573/326/104 446/326/105
f 560/326/111 590/326/112 592/326/111
f 521/326/114 462/326/113 464/326/114
f 542/326/99 445/326/100 574/326/99
f 524/326/121 463/326/120 461/326/121
f 555/326/121 589/326/122 587/326/121
f 537/326/106 446/326/105 448/326/106
f 558/326/112 588/326/113 590/326/112
f 519/326/117 464/326/114 466/326/117
f 414/326/157 510/326/157 413/326/157
f 472/326/157 475/326/157 476/326/157
f 470/326/157 471/326/157 472/326/157
f 470/326/157 467/326/157 469/326/157
f 466/326/157 467/326/157 468/326/157
f 466/326/157 463/326/157 465/326/157
f 464/326/157 461/326/157 463/326/157
f 459/326/157 462/326/157 460/326/157
f 457/326/157 460/326/157 458/326/157
f 456/326/157 457/326/157 458/326/157
f 454/326/157 455/326/157 456/326/157
f 454/326/157 451/326/157 453/326/157
f 450/326/157 451/326/157 452/326/157
f 450/326/157 447/326/157 449/326/157
f 448/326/157 445/326/157 447/326/157
f 573/326/157 445/326/157 446/326/157
f 573/326/157 576/326/157 574/326/157
f 577/326/157 576/326/157 575/326/157
f 579/326/157 578/326/157 577/326/157
f 579/326/157 582/326/157 580/326/157
f 583/326/157 582/326/157 581/326/157
f 583/326/157 586/326/157 584/326/157
f 585/326/157 588/326/157 586/326/157
f 589/326/157 588/326/157 587/326/157
f 589/326/157 592/326/157 590/326/157
f 593/326/157 592/326/157 591/326/157
f 595/326/157 594/326/157 593/326/157
f 595/326/157 598/326/157 596/326/157
f 599/326/157 598/326/157 597/326/157
f 599/326/157 602/326/157 600/326/157
f 601/326/157 604/326/157 602/326/157
f 473/326/157 604/326/157 603/326/157
f 509/326/116 472/326/115 476/326/116
f 550/326/132 580/326/129 582/326/132
f 529/326/110 454/326/109 456/326/110
f 568/326/107 598/326/108 600/326/107
f 547/326/101 581/326/118 579/326/101
f 516/326/101 471/326/102 469/326/101
f 565/326/126 599/326/127 597/326/126
f 534/326/126 453/326/125 451/326/126
f 513/326/115 470/326/129 472/326/115
f 552/326/117 582/326/132 584/326/117
f 531/326/109 452/326/108 454/326/109
f 570/326/106 600/326/107 602/326/106
f 549/326/118 583/326/119 581/326/118
f 518/326/118 469/326/101 467/326/118
f 567/326/127 601/326/130 599/326/127
f 536/326/127 451/326/126 449/326/127
f 515/326/129 468/326/132 470/326/129
f 554/326/114 584/326/117 586/326/114
f 533/326/108 450/326/107 452/326/108
f 572/326/105 602/326/106 604/326/105
f 551/326/119 585/326/120 583/326/119
f 520/326/119 467/326/118 465/326/119
f 569/326/130 603/326/100 601/326/130
f 538/326/130 449/326/127 447/326/130
f 517/326/132 466/326/117 468/326/132
f 511/326/104 604/326/105 474/326/104
f 556/326/113 586/326/114 588/326/113
f 535/326/107 448/326/106 450/326/107
f 571/326/100 473/326/99 603/326/100
f 553/326/120 587/326/121 585/326/120
f 522/326/120 465/326/119 463/326/120
f 540/326/100 447/326/130 445/326/100
f 413/326/157 510/326/157 514/326/157
f 444/326/157 572/326/157 511/326/157
f 531/326/157 529/326/157 527/326/157
f 527/326/157 525/326/157 523/326/157
f 523/326/157 521/326/157 519/326/157
f 519/326/157 517/326/157 515/326/157
f 515/326/157 513/326/157 509/326/157
f 509/326/157 512/326/157 571/326/157
f 571/326/157 569/326/157 567/326/157
f 567/326/157 565/326/157 563/326/157
f 563/326/157 561/326/157 559/326/157
f 559/326/157 557/326/157 555/326/157
f 555/326/157 553/326/157 551/326/157
f 551/326/157 549/326/157 547/326/157
f 547/326/157 545/326/157 543/326/157
f 543/326/157 541/326/157 539/326/157
f 539/326/157 537/326/157 535/326/157
f 535/326/157 533/326/157 531/326/157
f 531/326/157 527/326/157 523/326/157
f 523/326/157 519/326/157 515/326/157
f 515/326/157 509/326/157 571/326/157
f 571/326/157 567/326/157 563/326/157
f 563/326/157 559/326/157 555/326/157
f 555/326/157 551/326/157 547/326/157
f 547/326/157 543/326/157 539/326/157
f 539/326/157 535/326/157 531/326/157
f 531/326/157 523/326/157 515/326/157
f 515/326/157 571/326/157 563/326/157
f 563/326/157 555/326/157 547/326/157
f 547/326/157 539/326/157 531/326/157
f 531/326/157 515/326/157 563/326/157
f 416/326/157 516/326/157 518/326/157
f 518/326/157 520/326/157 418/326/157
f 418/326/157 520/326/157 522/326/157
f 522/326/157 524/326/157 420/326/157
f 524/326/157 526/326/157 421/326/157
f 422/326/157 421/326/157 526/326/157
f 528/326/157 530/326/157 423/326/157
f 423/326/157 530/326/157 532/326/157
f 424/326/157 532/326/157 534/326/157
f 534/326/157 536/326/157 426/326/157
f 426/326/157 536/326/157 538/326/157
f 538/326/157 540/326/157 428/326/157
f 428/326/157 540/326/157 542/326/157
f 429/326/157 542/326/157 544/326/157
f 544/326/157 546/326/157 431/326/157
f 431/326/157 546/326/157 548/326/157
f 432/326/157 548/326/157 550/326/157
f 550/326/157 552/326/157 434/326/157
f 434/326/157 552/326/157 554/326/157
f 554/326/157 556/326/157 436/326/157
f 436/326/157 556/326/157 558/326/157
f 558/326/157 560/326/157 438/326/157
f 560/326/157 562/326/157 439/326/157
f 439/326/157 562/326/157 564/326/157
f 440/326/157 564/326/157 566/326/157
f 566/326/157 568/326/157 442/326/157
f 568/326/157 570/326/157 443/326/157
f 443/326/157 570/326/157 572/326/157
f 473/326/157 476/326/157 475/326/157
f 415/326/157 514/326/157 516/326/157
f 439/326/110 440/326/109 504/326/109
f 426/326/127 427/326/130 491/326/130
f 414/326/104 413/326/103 477/326/103
f 440/326/109 441/326/108 505/326/108
f 427/326/130 428/326/100 492/326/100
f 413/326/103 415/326/102 479/326/102
f 441/326/108 442/326/107 506/326/107
f 428/326/100 429/326/99 493/326/99
f 415/326/102 416/326/101 480/326/101
f 442/326/107 443/326/106 507/326/106
f 429/326/99 430/326/116 494/326/116
f 416/326/101 417/326/118 481/326/118
f 443/326/106 444/326/105 508/326/105
f 430/326/116 431/326/115 495/326/115
f 417/326/118 418/326/119 482/326/119
f 444/326/105 414/326/104 478/326/104
f 431/326/115 432/326/129 496/326/129
f 418/326/119 419/326/120 483/326/120
f 432/326/129 433/326/132 497/326/132
f 419/326/120 420/326/121 484/326/121
f 433/326/132 434/326/117 498/326/117
f 420/326/121 421/326/122 485/326/122
f 434/326/117 435/326/114 499/326/114
f 421/326/122 422/326/123 486/326/123
f 435/326/114 436/326/113 500/326/113
f 422/326/123 423/326/124 487/326/124
f 436/326/113 437/326/112 501/326/112
f 423/326/124 424/326/125 488/326/125
f 437/326/112 438/326/111 502/326/111
f 424/326/125 425/326/126 489/326/126
f 438/326/111 439/326/110 503/326/110
f 425/326/126 426/326/127 490/326/127
f 532/326/125 530/326/124 455/326/124
f 563/326/125 565/326/126 597/326/126
f 514/326/102 510/326/103 475/326/103
f 545/326/102 547/326/101 579/326/101
f 566/326/108 564/326/109 596/326/109
f 527/326/111 529/326/110 456/326/110
f 548/326/129 546/326/115 578/326/115
f 512/326/99 509/326/116 476/326/116
f 530/326/124 528/326/123 457/326/123
f 561/326/124 563/326/125 595/326/125
f 543/326/103 545/326/102 577/326/102
f 564/326/109 562/326/110 594/326/110
f 510/326/103 511/326/104 474/326/104
f 525/326/112 527/326/111 458/326/111
f 546/326/115 544/326/116 576/326/116
f 528/326/123 526/326/122 459/326/122
f 559/326/123 561/326/124 593/326/124
f 541/326/104 543/326/103 575/326/103
f 562/326/110 560/326/111 592/326/111
f 523/326/113 525/326/112 460/326/112
f 544/326/116 542/326/99 574/326/99
f 526/326/122 524/326/121 461/326/121
f 557/326/122 559/326/123 591/326/123
f 539/326/105 541/326/104 573/326/104
f 560/326/111 558/326/112 590/326/112
f 521/326/114 523/326/113 462/326/113
f 542/326/99 540/326/100 445/326/100
f 524/326/121 522/326/120 463/326/120
f 555/326/121 557/326/122 589/326/122
f 537/326/106 539/326/105 446/326/105
f 558/326/112 556/326/113 588/326/113
f 519/326/117 521/326/114 464/326/114
f 414/326/157 511/326/157 510/326/157
f 472/326/157 471/326/157 475/326/157
f 470/326/157 469/326/157 471/326/157
f 470/326/157 468/326/157 467/326/157
f 466/326/157 465/326/157 467/326/157
f 466/326/157 464/326/157 463/326/157
f 464/326/157 462/326/157 461/326/157
f 459/326/157 461/326/157 462/326/157
f 457/326/157 459/326/157 460/326/157
f 456/326/157 455/326/157 457/326/157
f 454/326/157 453/326/157 455/326/157
f 454/326/157 452/326/157 451/326/157
f 450/326/157 449/326/157 451/326/157
f 450/326/157 448/326/157 447/326/157
f 448/326/157 446/326/157 445/326/157
f 573/326/157 574/326/157 445/326/157
f 573/326/157 575/326/157 576/326/157
f 577/326/157 578/326/157 576/326/157
f 579/326/157 580/326/157 578/326/157
f 579/326/157 581/326/157 582/326/157
f 583/326/157 584/326/157 582/326/157
f 583/326/157 585/326/157 586/326/157
f 585/326/157 587/326/157 588/326/157
f 589/326/157 590/326/157 588/326/157
f 589/326/157 591/326/157 592/326/157
f 593/326/157 594/326/157 592/326/157
f 595/326/157 596/326/157 594/326/157
f 595/326/157 597/326/157 598/326/157
f 599/326/157 600/326/157 598/326/157
f 599/326/157 601/326/157 602/326/157
f 601/326/157 603/326/157 604/326/157
f 473/326/157 474/326/157 604/326/157
f 509/326/116 513/326/115 472/326/115
f 550/326/132 548/326/129 580/326/129
f 529/326/110 531/326/109 454/326/109
f 568/326/107 566/326/108 598/326/108
f 547/326/101 549/326/118 581/326/118
f 516/326/101 514/326/102 471/326/102
f 565/326/126 567/326/127 599/326/127
f 534/326/126 532/326/125 453/326/125
f 513/326/115 515/326/129 470/326/129
f 552/326/117 550/326/132 582/326/132
f 531/326/109 533/326/108 452/326/108
f 570/326/106 568/326/107 600/326/107
f 549/326/118 551/326/119 583/326/119
f 518/326/118 516/326/101 469/326/101
f 567/326/127 569/326/130 601/326/130
f 536/326/127 534/326/126 451/326/126
f 515/326/129 517/326/132 468/326/132
f 554/326/114 552/326/117 584/326/117
f 533/326/108 535/326/107 450/326/107
f 572/326/105 570/326/106 602/326/106
f 551/326/119 553/326/120 585/326/120
f 520/326/119 518/326/118 467/326/118
f 569/326/130 571/326/100 603/326/100
f 538/326/130 536/326/127 449/326/127
f 517/326/132 519/326/117 466/326/117
f 511/326/104 572/326/105 604/326/105
f 556/326/113 554/326/114 586/326/114
f 535/326/107 537/326/106 448/326/106
f 571/326/100 512/326/99 473/326/99
f 553/326/120 555/326/121 587/326/121
f 522/326/120 520/326/119 465/326/119
f 540/326/100 538/326/130 447/326/130
usemtl Coffe
f 605/327/104 637/328/103 606/329/103
f 606/329/103 639/330/102 607/331/102
f 607/331/102 640/332/101 608/333/101
f 608/333/101 641/334/118 609/335/118
f 609/335/118 642/336/119 610/337/119
f 610/337/119 643/338/120 611/339/120
f 611/339/120 644/340/121 612/341/121
f 612/341/121 645/342/122 613/343/122
f 613/343/122 646/344/123 614/345/123
f 614/345/123 647/346/124 615/347/124
f 615/347/124 648/348/125 616/349/125
f 616/349/125 649/350/126 617/351/126
f 617/351/126 650/352/127 618/353/127
f 618/353/127 651/354/130 619/355/130
f 619/355/130 652/356/100 620/357/100
f 620/357/100 653/358/99 621/359/99
f 621/359/99 654/360/116 622/361/116
f 622/361/116 655/362/115 623/363/115
f 623/363/115 656/364/129 624/365/129
f 624/365/129 657/366/132 625/367/132
f 625/367/132 658/368/117 626/369/117
f 626/369/117 659/370/114 627/371/114
f 627/371/114 660/372/113 628/373/113
f 628/373/113 661/374/112 629/375/112
f 629/375/112 662/376/111 630/377/111
f 630/377/111 663/378/110 631/379/110
f 631/379/110 664/380/109 632/381/109
f 632/381/109 665/382/108 633/383/108
f 633/383/108 666/384/107 634/385/107
f 634/385/107 667/386/106 635/387/106
f 635/387/106 668/388/105 636/389/105
f 636/389/105 638/390/104 605/391/104
f 605/327/104 638/393/104 637/328/103
f 606/329/103 637/328/103 639/330/102
f 607/331/102 639/330/102 640/332/101
f 608/333/101 640/332/101 641/334/118
f 609/335/118 641/334/118 642/336/119
f 610/337/119 642/336/119 643/338/120
f 611/339/120 643/338/120 644/340/121
f 612/341/121 644/340/121 645/342/122
f 613/343/122 645/342/122 646/344/123
f 614/345/123 646/344/123 647/346/124
f 615/347/124 647/346/124 648/348/125
f 616/349/125 648/348/125 649/350/126
f 617/351/126 649/350/126 650/352/127
f 618/353/127 650/352/127 651/354/130
f 619/355/130 651/354/130 652/356/100
f 620/357/100 652/356/100 653/358/99
f 621/359/99 653/358/99 654/360/116
f 622/361/116 654/360/116 655/362/115
f 623/363/115 655/362/115 656/364/129
f 624/365/129 656/364/129 657/366/132
f 625/367/132 657/366/132 658/368/117
f 626/369/117 658/368/117 659/370/114
f 627/371/114 659/370/114 660/372/113
f 628/373/113 660/372/113 661/374/112
f 629/375/112 661/374/112 662/376/111
f 630/377/111 662/376/111 663/378/110
f 631/379/110 663/378/110 664/380/109
f 632/381/109 664/380/109 665/382/108
f 633/383/108 665/382/108 666/384/107
f 634/385/107 666/384/107 667/386/106
f 635/387/106 667/386/106 668/388/105
f 636/389/105 668/388/105 638/390/104
o Cylinder.044
v -56.344173 0.646876 -1.331969
v -56.742863 0.646876 -1.357936
v -55.965897 0.646876 -1.203388
v -55.554340 0.646876 -0.865634
v -55.354431 0.646876 -0.519709
v -55.277149 0.646876 -0.264945
v -55.251057 0.646876 0.000000
v -55.277149 0.646876 0.264945
v -55.354431 0.646876 0.519709
v -55.554340 0.646876 0.865634
v -55.965897 0.646876 1.203388
v -56.344173 0.646876 1.331969
v -56.742863 0.646876 1.357936
v -57.252342 0.646876 1.203388
v -57.569416 0.646876 0.960296
v -57.738308 0.646876 0.754500
v -57.863808 0.646876 0.519709
v -57.941090 0.646876 0.264945
v -57.967182 0.646876 0.000000
v -57.941090 0.646876 -0.264945
v -57.863808 0.646876 -0.519709
v -57.738308 0.646876 -0.754500
v -57.569416 0.646876 -0.960296
v -57.252342 0.646876 -1.203388
vn -0.0000 1.0000 -0.0000
vt 0.295033 0.476394
vt 0.023606 0.204967
vt 0.427574 0.104269
vt 0.463258 0.161665
vt 0.476394 0.204967
vt 0.480829 0.250000
vt 0.476394 0.295033
vt 0.463258 0.338335
vt 0.427574 0.395731
vt 0.358288 0.452593
vt 0.227484 0.478611
vt 0.141712 0.452593
vt 0.086779 0.413221
vt 0.058073 0.378242
vt 0.036742 0.338335
vt 0.023606 0.295033
vt 0.019171 0.250000
vt 0.036742 0.161666
vt 0.058073 0.121758
vt 0.086779 0.086779
vt 0.141712 0.047407
vt 0.227484 0.021388
vt 0.295033 0.023606
vt 0.358288 0.047407
s 1
usemtl Dirt
f 669/394/286 686/395/286 678/396/286
f 678/396/286 677/397/286 676/398/286
f 676/398/286 675/399/286 674/400/286
f 674/400/286 673/401/286 672/402/286
f 672/402/286 671/403/286 669/394/286
f 669/394/286 670/404/286 692/405/286
f 692/405/286 691/406/286 690/407/286
f 690/407/286 689/408/286 688/409/286
f 688/409/286 687/410/286 686/395/286
f 686/395/286 685/411/286 684/412/286
f 684/412/286 683/413/286 682/414/286
f 682/414/286 681/415/286 680/416/286
f 680/416/286 679/417/286 678/396/286
f 678/396/286 676/398/286 674/400/286
f 674/400/286 672/402/286 669/394/286
f 669/394/286 692/405/286 690/407/286
f 690/407/286 688/409/286 686/395/286
f 686/395/286 684/412/286 682/414/286
f 682/414/286 680/416/286 678/396/286
f 678/396/286 674/400/286 669/394/286
f 669/394/286 690/407/286 686/395/286
f 686/395/286 682/414/286 678/396/286
